<svg xmlns="http://www.w3.org/2000/svg" xmlns:xlink="http://www.w3.org/1999/xlink" width="640" zoomAndPan="magnify" viewBox="0 0 480 239.999995" height="320" preserveAspectRatio="xMidYMid meet" version="1.0"><metadata/><defs><g/><clipPath id="f7a616bf4c"><path d="M 0 43 L 193.5 43 L 193.5 199 L 0 199 Z M 0 43 " clip-rule="nonzero"/></clipPath><clipPath id="e8899a24a2"><rect x="0" width="192" y="0" height="85"/></clipPath><clipPath id="fa42bf79e6"><rect x="0" width="170" y="0" height="84"/></clipPath></defs><g clip-path="url(#f7a616bf4c)"><path fill="#fbc400" d="M 106.417969 80.988281 L 90.726562 77.058594 C 88.761719 76.574219 87.3125 74.910156 87.101562 72.886719 C 86.886719 70.859375 87.945312 68.925781 89.730469 68.019531 L 102.066406 61.851562 L 88.972656 52.027344 C 87.3125 50.785156 86.617188 48.609375 87.28125 46.613281 C 87.945312 44.617188 89.820312 43.347656 91.90625 43.347656 L 140.277344 43.347656 C 149.410156 43.347656 158.027344 47.640625 163.496094 54.957031 L 180.910156 78.175781 C 182.785156 80.6875 183.8125 83.738281 183.8125 86.882812 C 183.8125 94.894531 177.3125 101.394531 169.300781 101.394531 L 162.800781 101.394531 C 157.664062 101.394531 152.734375 99.371094 149.105469 95.742188 L 145.085938 91.722656 L 135.410156 91.722656 L 135.410156 98.222656 C 135.410156 105.71875 139.28125 112.703125 145.628906 116.691406 L 177.859375 136.828125 C 187.5625 142.90625 193.457031 153.515625 193.457031 164.972656 C 193.457031 183.296875 178.613281 198.167969 160.261719 198.167969 L 9.765625 198.140625 C 8.765625 198.140625 7.769531 198.019531 6.863281 197.714844 C 4.082031 196.871094 1.8125 194.8125 0.695312 192.09375 C 0.300781 191.09375 0.03125 190.007812 0 188.859375 C -0.0585938 187.738281 0.0898438 186.652344 0.394531 185.625 C 1.238281 182.839844 3.296875 180.574219 6.015625 179.457031 C 6.921875 179.09375 7.890625 178.851562 8.886719 178.789062 L 130.996094 167.90625 C 133.507812 167.695312 135.441406 165.578125 135.441406 163.039062 C 135.441406 161.738281 134.929688 160.5 134.019531 159.59375 L 120.597656 146.167969 C 111.527344 137.101562 106.417969 124.796875 106.417969 111.976562 Z M 154.789062 65.207031 C 154.789062 65.175781 154.789062 65.148438 154.789062 65.117188 C 154.789062 65.085938 154.789062 65.054688 154.789062 65.027344 Z M 154.398438 67.445312 L 140.371094 63.9375 C 140.308594 64.332031 140.277344 64.722656 140.277344 65.117188 C 140.277344 69.136719 143.515625 72.371094 147.535156 72.371094 C 150.738281 72.371094 153.429688 70.316406 154.398438 67.445312 Z M 39.574219 78.570312 C 44.503906 74.1875 51.789062 73.671875 57.261719 77.332031 L 96.742188 103.632812 L 96.742188 111.945312 C 96.742188 121.863281 99.285156 131.539062 104 140.0625 L 33.859375 140.0625 C 31.835938 140.0625 30.019531 138.792969 29.324219 136.917969 C 28.628906 135.042969 29.175781 132.898438 30.714844 131.566406 L 51.699219 113.578125 L 5.5625 120.683594 C 3.445312 121.015625 1.359375 119.898438 0.453125 117.960938 C -0.453125 116.027344 0.03125 113.730469 1.632812 112.277344 Z M 39.574219 78.570312 " fill-opacity="1" fill-rule="nonzero"/></g><g transform="matrix(1, 0, 0, 1, 286, 41)"><g clip-path="url(#e8899a24a2)"><g fill="#fbc400" fill-opacity="1"><g transform="translate(0.50485, 63.096425)"><g><path d="M 4.046875 -43.71875 C 4.046875 -43.9375 4.132812 -44.304688 4.3125 -44.828125 C 4.5 -45.359375 4.800781 -45.898438 5.21875 -46.453125 C 5.644531 -47.003906 6.203125 -47.503906 6.890625 -47.953125 C 7.578125 -48.410156 8.445312 -48.691406 9.5 -48.796875 C 14.144531 -49.160156 18.078125 -48.644531 21.296875 -47.25 C 24.523438 -45.851562 27.113281 -43.859375 29.0625 -41.265625 C 31.019531 -38.679688 32.40625 -35.671875 33.21875 -32.234375 C 34.039062 -28.804688 34.398438 -25.296875 34.296875 -21.703125 C 34.191406 -18.535156 33.675781 -15.523438 32.75 -12.671875 C 31.820312 -9.816406 30.378906 -7.347656 28.421875 -5.265625 C 26.472656 -3.179688 23.925781 -1.570312 20.78125 -0.4375 C 17.644531 0.695312 13.804688 1.1875 9.265625 1.03125 C 8.523438 1.03125 7.796875 1.015625 7.078125 0.984375 C 6.367188 0.960938 5.75 0.789062 5.21875 0.46875 C 4.695312 0.15625 4.289062 -0.378906 4 -1.140625 C 3.707031 -1.910156 3.5625 -3.0625 3.5625 -4.59375 Z M 9.5 -4.984375 C 12.882812 -4.671875 15.75 -4.882812 18.09375 -5.625 C 20.445312 -6.363281 22.347656 -7.5 23.796875 -9.03125 C 25.253906 -10.5625 26.328125 -12.421875 27.015625 -14.609375 C 27.703125 -16.804688 28.097656 -19.222656 28.203125 -21.859375 C 28.304688 -24.710938 28.109375 -27.484375 27.609375 -30.171875 C 27.109375 -32.867188 26.15625 -35.21875 24.75 -37.21875 C 23.351562 -39.226562 21.425781 -40.757812 18.96875 -41.8125 C 16.507812 -42.875 13.378906 -43.164062 9.578125 -42.6875 Z M 9.5 -4.984375 "/></g></g></g><g fill="#fbc400" fill-opacity="1"><g transform="translate(37.412647, 63.096425)"><g><path d="M 22.34375 -18.765625 C 21.550781 -19.503906 20.664062 -20.164062 19.6875 -20.75 C 18.707031 -21.332031 17.660156 -21.625 16.546875 -21.625 C 15.441406 -21.625 14.414062 -21.398438 13.46875 -20.953125 C 12.519531 -20.503906 11.675781 -19.894531 10.9375 -19.125 C 10.195312 -18.363281 9.613281 -17.476562 9.1875 -16.46875 C 8.757812 -15.46875 8.546875 -14.414062 8.546875 -13.3125 L 8.546875 -2.0625 C 8.492188 -1.21875 8.175781 -0.519531 7.59375 0.03125 C 7.019531 0.59375 6.375 0.910156 5.65625 0.984375 C 4.945312 1.066406 4.257812 0.894531 3.59375 0.46875 C 2.9375 0.0507812 2.53125 -0.710938 2.375 -1.828125 L 2.453125 -25.65625 C 2.453125 -26.664062 2.753906 -27.367188 3.359375 -27.765625 C 3.972656 -28.160156 4.648438 -28.332031 5.390625 -28.28125 C 6.128906 -28.226562 6.800781 -28.003906 7.40625 -27.609375 C 8.007812 -27.210938 8.3125 -26.695312 8.3125 -26.0625 L 8.390625 -24.796875 C 9.554688 -25.691406 10.8125 -26.375 12.15625 -26.84375 C 13.5 -27.320312 14.9375 -27.5625 16.46875 -27.5625 C 18.6875 -27.5625 20.71875 -27.097656 22.5625 -26.171875 C 24.414062 -25.253906 25.898438 -23.921875 27.015625 -22.171875 C 27.328125 -21.648438 27.40625 -21.046875 27.25 -20.359375 C 27.09375 -19.671875 26.773438 -19.085938 26.296875 -18.609375 C 25.816406 -18.140625 25.234375 -17.863281 24.546875 -17.78125 C 23.867188 -17.695312 23.132812 -18.023438 22.34375 -18.765625 Z M 22.34375 -18.765625 "/></g></g></g><g fill="#fbc400" fill-opacity="1"><g transform="translate(66.241913, 63.096425)"><g><path d="M 24 -1.90625 C 22.832031 -1 21.578125 -0.3125 20.234375 0.15625 C 18.890625 0.632812 17.453125 0.875 15.921875 0.875 C 14.015625 0.875 12.21875 0.492188 10.53125 -0.265625 C 8.84375 -1.035156 7.363281 -2.082031 6.09375 -3.40625 C 4.832031 -4.726562 3.84375 -6.257812 3.125 -8 C 2.414062 -9.738281 2.0625 -11.5625 2.0625 -13.46875 C 2.0625 -15.363281 2.414062 -17.179688 3.125 -18.921875 C 3.84375 -20.671875 4.832031 -22.191406 6.09375 -23.484375 C 7.363281 -24.773438 8.84375 -25.800781 10.53125 -26.5625 C 12.21875 -27.332031 14.015625 -27.71875 15.921875 -27.71875 C 17.347656 -27.71875 18.71875 -27.492188 20.03125 -27.046875 C 21.351562 -26.597656 22.570312 -25.976562 23.6875 -25.1875 C 23.894531 -26.082031 24.367188 -26.703125 25.109375 -27.046875 C 25.847656 -27.390625 26.597656 -27.507812 27.359375 -27.40625 C 28.128906 -27.300781 28.800781 -27.007812 29.375 -26.53125 C 29.957031 -26.0625 30.171875 -25.507812 30.015625 -24.875 L 29.9375 -1.03125 C 29.9375 -0.03125 29.632812 0.664062 29.03125 1.0625 C 28.425781 1.457031 27.753906 1.628906 27.015625 1.578125 C 26.273438 1.523438 25.597656 1.300781 24.984375 0.90625 C 24.378906 0.507812 24.078125 -0.00390625 24.078125 -0.640625 Z M 7.84375 -13.390625 C 7.84375 -12.273438 8.050781 -11.21875 8.46875 -10.21875 C 8.894531 -9.21875 9.476562 -8.332031 10.21875 -7.5625 C 10.957031 -6.800781 11.800781 -6.191406 12.75 -5.734375 C 13.695312 -5.285156 14.726562 -5.0625 15.84375 -5.0625 C 16.945312 -5.0625 17.972656 -5.285156 18.921875 -5.734375 C 19.878906 -6.191406 20.726562 -6.800781 21.46875 -7.5625 C 22.207031 -8.332031 22.785156 -9.21875 23.203125 -10.21875 C 23.628906 -11.21875 23.84375 -12.273438 23.84375 -13.390625 C 23.84375 -14.492188 23.628906 -15.546875 23.203125 -16.546875 C 22.785156 -17.554688 22.207031 -18.429688 21.46875 -19.171875 C 20.726562 -19.910156 19.878906 -20.503906 18.921875 -20.953125 C 17.972656 -21.398438 16.945312 -21.625 15.84375 -21.625 C 14.726562 -21.625 13.695312 -21.398438 12.75 -20.953125 C 11.800781 -20.503906 10.957031 -19.910156 10.21875 -19.171875 C 9.476562 -18.429688 8.894531 -17.554688 8.46875 -16.546875 C 8.050781 -15.546875 7.84375 -14.492188 7.84375 -13.390625 Z M 7.84375 -13.390625 "/></g></g></g><g fill="#fbc400" fill-opacity="1"><g transform="translate(98.239229, 63.096425)"><g><path d="M 23.53125 -26.9375 C 23.53125 -27.5625 23.832031 -28.070312 24.4375 -28.46875 C 25.039062 -28.863281 25.710938 -29.085938 26.453125 -29.140625 C 27.191406 -29.203125 27.863281 -29.035156 28.46875 -28.640625 C 29.082031 -28.242188 29.390625 -27.539062 29.390625 -26.53125 L 29.390625 -5.859375 C 29.390625 0.953125 28.253906 6.070312 25.984375 9.5 C 23.710938 12.9375 19.800781 14.550781 14.25 14.34375 C 12.09375 14.28125 10.191406 13.773438 8.546875 12.828125 C 6.910156 11.878906 5.144531 10.320312 3.25 8.15625 C 2.613281 7.46875 2.414062 6.78125 2.65625 6.09375 C 2.894531 5.40625 3.328125 4.847656 3.953125 4.421875 C 4.585938 4.003906 5.285156 3.742188 6.046875 3.640625 C 6.816406 3.535156 7.441406 3.695312 7.921875 4.125 C 8.972656 5.65625 10.132812 6.734375 11.40625 7.359375 C 12.675781 7.992188 13.863281 8.363281 14.96875 8.46875 C 16.550781 8.632812 17.882812 8.453125 18.96875 7.921875 C 20.050781 7.390625 20.910156 6.648438 21.546875 5.703125 C 22.179688 4.753906 22.613281 3.617188 22.84375 2.296875 C 23.082031 0.972656 23.175781 -0.453125 23.125 -1.984375 C 22.070312 -1.296875 20.84375 -0.765625 19.4375 -0.390625 C 18.039062 -0.0234375 16.679688 0.15625 15.359375 0.15625 C 13.460938 0.15625 11.671875 -0.222656 9.984375 -0.984375 C 8.296875 -1.753906 6.816406 -2.785156 5.546875 -4.078125 C 4.273438 -5.367188 3.28125 -6.882812 2.5625 -8.625 C 1.851562 -10.375 1.5 -12.195312 1.5 -14.09375 C 1.5 -16 1.851562 -17.820312 2.5625 -19.5625 C 3.28125 -21.300781 4.273438 -22.832031 5.546875 -24.15625 C 6.816406 -25.476562 8.296875 -26.519531 9.984375 -27.28125 C 11.671875 -28.050781 13.460938 -28.4375 15.359375 -28.4375 C 16.890625 -28.4375 18.328125 -28.195312 19.671875 -27.71875 C 21.023438 -27.25 22.285156 -26.5625 23.453125 -25.65625 Z M 7.28125 -14.171875 C 7.28125 -13.066406 7.488281 -12.007812 7.90625 -11 C 8.332031 -10 8.914062 -9.128906 9.65625 -8.390625 C 10.394531 -7.648438 11.238281 -7.054688 12.1875 -6.609375 C 13.144531 -6.160156 14.175781 -5.9375 15.28125 -5.9375 C 16.394531 -5.9375 17.425781 -6.160156 18.375 -6.609375 C 19.320312 -7.054688 20.164062 -7.648438 20.90625 -8.390625 C 21.644531 -9.128906 22.222656 -10 22.640625 -11 C 23.066406 -12.007812 23.28125 -13.066406 23.28125 -14.171875 C 23.28125 -15.285156 23.066406 -16.34375 22.640625 -17.34375 C 22.222656 -18.351562 21.644531 -19.238281 20.90625 -20 C 20.164062 -20.769531 19.320312 -21.378906 18.375 -21.828125 C 17.425781 -22.273438 16.394531 -22.5 15.28125 -22.5 C 14.175781 -22.5 13.144531 -22.273438 12.1875 -21.828125 C 11.238281 -21.378906 10.394531 -20.769531 9.65625 -20 C 8.914062 -19.238281 8.332031 -18.351562 7.90625 -17.34375 C 7.488281 -16.34375 7.28125 -15.285156 7.28125 -14.171875 Z M 7.28125 -14.171875 "/></g></g></g><g fill="#fbc400" fill-opacity="1"><g transform="translate(129.602935, 63.096425)"><g><path d="M 2.0625 -13.46875 C 2.0625 -15.363281 2.414062 -17.179688 3.125 -18.921875 C 3.84375 -20.671875 4.832031 -22.191406 6.09375 -23.484375 C 7.363281 -24.773438 8.84375 -25.800781 10.53125 -26.5625 C 12.21875 -27.332031 14.015625 -27.71875 15.921875 -27.71875 C 17.816406 -27.71875 19.609375 -27.332031 21.296875 -26.5625 C 22.992188 -25.800781 24.472656 -24.773438 25.734375 -23.484375 C 27.003906 -22.191406 27.992188 -20.671875 28.703125 -18.921875 C 29.421875 -17.179688 29.78125 -15.363281 29.78125 -13.46875 C 29.78125 -11.5625 29.421875 -9.738281 28.703125 -8 C 27.992188 -6.257812 27.003906 -4.726562 25.734375 -3.40625 C 24.472656 -2.082031 22.992188 -1.035156 21.296875 -0.265625 C 19.609375 0.492188 17.816406 0.875 15.921875 0.875 C 14.015625 0.875 12.21875 0.492188 10.53125 -0.265625 C 8.84375 -1.035156 7.363281 -2.082031 6.09375 -3.40625 C 4.832031 -4.726562 3.84375 -6.257812 3.125 -8 C 2.414062 -9.738281 2.0625 -11.5625 2.0625 -13.46875 Z M 7.84375 -13.390625 C 7.84375 -12.273438 8.050781 -11.21875 8.46875 -10.21875 C 8.894531 -9.21875 9.476562 -8.332031 10.21875 -7.5625 C 10.957031 -6.800781 11.800781 -6.191406 12.75 -5.734375 C 13.695312 -5.285156 14.726562 -5.0625 15.84375 -5.0625 C 16.945312 -5.0625 17.972656 -5.285156 18.921875 -5.734375 C 19.878906 -6.191406 20.726562 -6.800781 21.46875 -7.5625 C 22.207031 -8.332031 22.785156 -9.21875 23.203125 -10.21875 C 23.628906 -11.21875 23.84375 -12.273438 23.84375 -13.390625 C 23.84375 -14.492188 23.628906 -15.546875 23.203125 -16.546875 C 22.785156 -17.554688 22.207031 -18.429688 21.46875 -19.171875 C 20.726562 -19.910156 19.878906 -20.503906 18.921875 -20.953125 C 17.972656 -21.398438 16.945312 -21.625 15.84375 -21.625 C 14.726562 -21.625 13.695312 -21.398438 12.75 -20.953125 C 11.800781 -20.503906 10.957031 -19.910156 10.21875 -19.171875 C 9.476562 -18.429688 8.894531 -17.554688 8.46875 -16.546875 C 8.050781 -15.546875 7.84375 -14.492188 7.84375 -13.390625 Z M 7.84375 -13.390625 "/></g></g></g><g fill="#fbc400" fill-opacity="1"><g transform="translate(161.600252, 63.096425)"><g><path d="M 22.09375 -1.1875 C 22.195312 -5.726562 22.09375 -9.34375 21.78125 -12.03125 C 21.46875 -14.726562 21.03125 -16.789062 20.46875 -18.21875 C 19.914062 -19.644531 19.28125 -20.566406 18.5625 -20.984375 C 17.851562 -21.410156 17.179688 -21.625 16.546875 -21.625 C 15.441406 -21.625 14.414062 -21.398438 13.46875 -20.953125 C 12.519531 -20.503906 11.675781 -19.894531 10.9375 -19.125 C 10.195312 -18.363281 9.613281 -17.476562 9.1875 -16.46875 C 8.757812 -15.46875 8.546875 -14.414062 8.546875 -13.3125 L 8.546875 -2.0625 C 8.492188 -1.21875 8.175781 -0.519531 7.59375 0.03125 C 7.019531 0.59375 6.375 0.910156 5.65625 0.984375 C 4.945312 1.066406 4.257812 0.894531 3.59375 0.46875 C 2.9375 0.0507812 2.53125 -0.710938 2.375 -1.828125 L 2.453125 -25.65625 C 2.453125 -26.664062 2.753906 -27.367188 3.359375 -27.765625 C 3.972656 -28.160156 4.648438 -28.332031 5.390625 -28.28125 C 6.128906 -28.226562 6.800781 -28.003906 7.40625 -27.609375 C 8.007812 -27.210938 8.3125 -26.695312 8.3125 -26.0625 L 8.390625 -24.796875 C 9.554688 -25.691406 10.8125 -26.375 12.15625 -26.84375 C 13.5 -27.320312 14.9375 -27.5625 16.46875 -27.5625 C 19.21875 -27.5625 21.359375 -26.914062 22.890625 -25.625 C 24.421875 -24.332031 25.566406 -22.535156 26.328125 -20.234375 C 27.097656 -17.941406 27.5625 -15.195312 27.71875 -12 C 27.875 -8.800781 27.953125 -5.328125 27.953125 -1.578125 C 27.953125 -0.578125 27.648438 0.117188 27.046875 0.515625 C 26.441406 0.910156 25.769531 1.082031 25.03125 1.03125 C 24.289062 0.976562 23.613281 0.753906 23 0.359375 C 22.394531 -0.0351562 22.09375 -0.550781 22.09375 -1.1875 Z M 22.09375 -1.1875 "/></g></g></g></g></g><g transform="matrix(1, 0, 0, 1, 286, 119)"><g clip-path="url(#fa42bf79e6)"><g fill="#fbc400" fill-opacity="1"><g transform="translate(0.50485, 62.438711)"><g><path d="M 30.34375 -38.421875 C 30.65625 -37.628906 30.597656 -36.941406 30.171875 -36.359375 C 29.753906 -35.773438 29.203125 -35.363281 28.515625 -35.125 C 27.828125 -34.882812 27.140625 -34.832031 26.453125 -34.96875 C 25.765625 -35.101562 25.34375 -35.539062 25.1875 -36.28125 C 24.820312 -37.8125 24.253906 -39.023438 23.484375 -39.921875 C 22.722656 -40.816406 21.914062 -41.5 21.0625 -41.96875 C 20.21875 -42.445312 19.398438 -42.753906 18.609375 -42.890625 C 17.816406 -43.023438 17.238281 -43.117188 16.875 -43.171875 C 15.550781 -43.273438 14.332031 -43.15625 13.21875 -42.8125 C 12.113281 -42.46875 11.164062 -41.988281 10.375 -41.375 C 9.582031 -40.769531 8.945312 -40.070312 8.46875 -39.28125 C 8 -38.488281 7.738281 -37.695312 7.6875 -36.90625 C 7.53125 -35.21875 7.738281 -33.832031 8.3125 -32.75 C 8.894531 -31.664062 9.753906 -30.753906 10.890625 -30.015625 C 12.023438 -29.273438 13.367188 -28.613281 14.921875 -28.03125 C 16.484375 -27.457031 18.109375 -26.828125 19.796875 -26.140625 C 21.429688 -25.453125 23.054688 -24.695312 24.671875 -23.875 C 26.285156 -23.0625 27.6875 -22.0625 28.875 -20.875 C 30.0625 -19.6875 30.957031 -18.242188 31.5625 -16.546875 C 32.164062 -14.859375 32.335938 -12.828125 32.078125 -10.453125 C 31.816406 -7.972656 31.078125 -5.875 29.859375 -4.15625 C 28.648438 -2.4375 27.160156 -1.085938 25.390625 -0.109375 C 23.617188 0.859375 21.6875 1.488281 19.59375 1.78125 C 17.507812 2.070312 15.46875 2.003906 13.46875 1.578125 C 10.769531 1.054688 8.351562 -0.0078125 6.21875 -1.625 C 4.082031 -3.238281 2.671875 -5.390625 1.984375 -8.078125 C 1.929688 -9.023438 2.179688 -9.816406 2.734375 -10.453125 C 3.285156 -11.085938 3.90625 -11.523438 4.59375 -11.765625 C 5.28125 -12.003906 5.941406 -12.003906 6.578125 -11.765625 C 7.210938 -11.523438 7.582031 -11.035156 7.6875 -10.296875 C 7.945312 -8.398438 8.84375 -6.945312 10.375 -5.9375 C 11.90625 -4.9375 13.625 -4.304688 15.53125 -4.046875 C 16.738281 -3.878906 17.921875 -3.890625 19.078125 -4.078125 C 20.242188 -4.265625 21.300781 -4.644531 22.25 -5.21875 C 23.207031 -5.800781 24.015625 -6.554688 24.671875 -7.484375 C 25.328125 -8.410156 25.765625 -9.5625 25.984375 -10.9375 C 26.191406 -12.414062 26.082031 -13.691406 25.65625 -14.765625 C 25.238281 -15.847656 24.582031 -16.785156 23.6875 -17.578125 C 22.789062 -18.367188 21.707031 -19.054688 20.4375 -19.640625 C 19.164062 -20.222656 17.816406 -20.804688 16.390625 -21.390625 C 14.597656 -22.078125 12.789062 -22.816406 10.96875 -23.609375 C 9.144531 -24.398438 7.519531 -25.375 6.09375 -26.53125 C 4.664062 -27.695312 3.539062 -29.132812 2.71875 -30.84375 C 1.90625 -32.5625 1.632812 -34.691406 1.90625 -37.234375 C 2.113281 -39.285156 2.691406 -41.0625 3.640625 -42.5625 C 4.585938 -44.070312 5.773438 -45.316406 7.203125 -46.296875 C 8.628906 -47.273438 10.203125 -47.988281 11.921875 -48.4375 C 13.640625 -48.882812 15.34375 -49.054688 17.03125 -48.953125 C 18.03125 -48.898438 19.164062 -48.703125 20.4375 -48.359375 C 21.707031 -48.015625 22.972656 -47.445312 24.234375 -46.65625 C 25.503906 -45.863281 26.679688 -44.804688 27.765625 -43.484375 C 28.847656 -42.160156 29.707031 -40.472656 30.34375 -38.421875 Z M 30.34375 -38.421875 "/></g></g></g><g fill="#fbc400" fill-opacity="1"><g transform="translate(34.482199, 62.438711)"><g><path d="M 10.453125 -29.703125 L 10.296875 -42.21875 C 10.453125 -43.164062 10.898438 -43.8125 11.640625 -44.15625 C 12.378906 -44.5 13.128906 -44.628906 13.890625 -44.546875 C 14.660156 -44.472656 15.335938 -44.195312 15.921875 -43.71875 C 16.503906 -43.25 16.710938 -42.695312 16.546875 -42.0625 L 16.546875 -29.703125 L 23.53125 -29.703125 C 24.476562 -29.546875 25.148438 -29.125 25.546875 -28.4375 C 25.941406 -27.75 26.085938 -27.046875 25.984375 -26.328125 C 25.878906 -25.617188 25.535156 -25 24.953125 -24.46875 C 24.367188 -23.945312 23.578125 -23.738281 22.578125 -23.84375 L 16.640625 -23.84375 L 16.71875 -1.90625 C 16.71875 -0.894531 16.398438 -0.191406 15.765625 0.203125 C 15.128906 0.597656 14.441406 0.769531 13.703125 0.71875 C 12.960938 0.664062 12.273438 0.441406 11.640625 0.046875 C 11.003906 -0.347656 10.6875 -0.863281 10.6875 -1.5 L 10.53125 -23.84375 L 3.953125 -23.84375 C 2.953125 -23.84375 2.253906 -24.144531 1.859375 -24.75 C 1.460938 -25.351562 1.289062 -26.023438 1.34375 -26.765625 C 1.394531 -27.503906 1.617188 -28.175781 2.015625 -28.78125 C 2.410156 -29.394531 2.925781 -29.703125 3.5625 -29.703125 Z M 10.453125 -29.703125 "/></g></g></g><g fill="#fbc400" fill-opacity="1"><g transform="translate(61.80664, 62.438711)"><g><path d="M 8.796875 -25.90625 C 8.421875 -21.039062 8.351562 -17.25 8.59375 -14.53125 C 8.832031 -11.8125 9.226562 -9.78125 9.78125 -8.4375 C 10.332031 -7.09375 10.976562 -6.257812 11.71875 -5.9375 C 12.457031 -5.625 13.144531 -5.46875 13.78125 -5.46875 C 14.894531 -5.46875 15.925781 -5.691406 16.875 -6.140625 C 17.820312 -6.585938 18.664062 -7.191406 19.40625 -7.953125 C 20.144531 -8.722656 20.722656 -9.609375 21.140625 -10.609375 C 21.566406 -11.617188 21.78125 -12.675781 21.78125 -13.78125 L 21.78125 -25.03125 C 21.832031 -25.875 22.148438 -26.570312 22.734375 -27.125 C 23.316406 -27.675781 23.960938 -27.992188 24.671875 -28.078125 C 25.390625 -28.160156 26.078125 -27.988281 26.734375 -27.5625 C 27.390625 -27.144531 27.796875 -26.378906 27.953125 -25.265625 L 27.875 -1.421875 C 27.875 -0.421875 27.570312 0.273438 26.96875 0.671875 C 26.363281 1.066406 25.691406 1.238281 24.953125 1.1875 C 24.210938 1.132812 23.535156 0.910156 22.921875 0.515625 C 22.316406 0.117188 22.015625 -0.394531 22.015625 -1.03125 L 21.9375 -2.296875 C 20.78125 -1.398438 19.523438 -0.710938 18.171875 -0.234375 C 16.828125 0.234375 15.390625 0.46875 13.859375 0.46875 C 11.117188 0.46875 8.941406 -0.132812 7.328125 -1.34375 C 5.710938 -2.5625 4.519531 -4.289062 3.75 -6.53125 C 2.988281 -8.78125 2.554688 -11.515625 2.453125 -14.734375 C 2.347656 -17.953125 2.398438 -21.539062 2.609375 -25.5 C 2.660156 -26.507812 3.015625 -27.210938 3.671875 -27.609375 C 4.335938 -28.003906 5.050781 -28.175781 5.8125 -28.125 C 6.582031 -28.070312 7.285156 -27.847656 7.921875 -27.453125 C 8.554688 -27.054688 8.847656 -26.539062 8.796875 -25.90625 Z M 8.796875 -25.90625 "/></g></g></g><g fill="#fbc400" fill-opacity="1"><g transform="translate(92.14073, 62.438711)"><g><path d="M 23.921875 -1.90625 C 22.753906 -1 21.5 -0.3125 20.15625 0.15625 C 18.8125 0.632812 17.375 0.875 15.84375 0.875 C 13.9375 0.875 12.140625 0.492188 10.453125 -0.265625 C 8.765625 -1.035156 7.285156 -2.082031 6.015625 -3.40625 C 4.753906 -4.726562 3.765625 -6.257812 3.046875 -8 C 2.335938 -9.738281 1.984375 -11.5625 1.984375 -13.46875 C 1.984375 -15.363281 2.335938 -17.179688 3.046875 -18.921875 C 3.765625 -20.671875 4.753906 -22.191406 6.015625 -23.484375 C 7.285156 -24.773438 8.765625 -25.800781 10.453125 -26.5625 C 12.140625 -27.332031 13.9375 -27.71875 15.84375 -27.71875 C 17.269531 -27.71875 18.640625 -27.492188 19.953125 -27.046875 C 21.273438 -26.597656 22.492188 -25.976562 23.609375 -25.1875 C 23.609375 -25.238281 23.617188 -25.765625 23.640625 -26.765625 C 23.671875 -27.773438 23.6875 -29.046875 23.6875 -30.578125 C 23.6875 -32.109375 23.695312 -33.742188 23.71875 -35.484375 C 23.75 -37.222656 23.765625 -38.84375 23.765625 -40.34375 C 23.765625 -41.851562 23.765625 -43.109375 23.765625 -44.109375 C 23.765625 -45.117188 23.765625 -45.648438 23.765625 -45.703125 C 23.816406 -46.546875 24.128906 -47.242188 24.703125 -47.796875 C 25.285156 -48.359375 25.929688 -48.675781 26.640625 -48.75 C 27.359375 -48.832031 28.046875 -48.660156 28.703125 -48.234375 C 29.367188 -47.816406 29.78125 -47.050781 29.9375 -45.9375 L 29.859375 -1.03125 C 29.859375 -0.03125 29.554688 0.664062 28.953125 1.0625 C 28.347656 1.457031 27.675781 1.628906 26.9375 1.578125 C 26.195312 1.523438 25.519531 1.300781 24.90625 0.90625 C 24.300781 0.507812 24 -0.00390625 24 -0.640625 Z M 7.765625 -13.390625 C 7.765625 -12.273438 7.972656 -11.21875 8.390625 -10.21875 C 8.816406 -9.21875 9.398438 -8.332031 10.140625 -7.5625 C 10.878906 -6.800781 11.722656 -6.191406 12.671875 -5.734375 C 13.617188 -5.285156 14.648438 -5.0625 15.765625 -5.0625 C 16.867188 -5.0625 17.894531 -5.285156 18.84375 -5.734375 C 19.800781 -6.191406 20.648438 -6.800781 21.390625 -7.5625 C 22.128906 -8.332031 22.707031 -9.21875 23.125 -10.21875 C 23.550781 -11.21875 23.765625 -12.273438 23.765625 -13.390625 C 23.765625 -14.492188 23.550781 -15.546875 23.125 -16.546875 C 22.707031 -17.554688 22.128906 -18.429688 21.390625 -19.171875 C 20.648438 -19.910156 19.800781 -20.503906 18.84375 -20.953125 C 17.894531 -21.398438 16.867188 -21.625 15.765625 -21.625 C 14.648438 -21.625 13.617188 -21.398438 12.671875 -20.953125 C 11.722656 -20.503906 10.878906 -19.910156 10.140625 -19.171875 C 9.398438 -18.429688 8.816406 -17.554688 8.390625 -16.546875 C 7.972656 -15.546875 7.765625 -14.492188 7.765625 -13.390625 Z M 7.765625 -13.390625 "/></g></g></g><g fill="#fbc400" fill-opacity="1"><g transform="translate(124.771657, 62.438711)"><g><path d="M 3.09375 -25.03125 C 3.25 -25.976562 3.695312 -26.625 4.4375 -26.96875 C 5.175781 -27.3125 5.941406 -27.429688 6.734375 -27.328125 C 7.523438 -27.222656 8.207031 -26.929688 8.78125 -26.453125 C 9.363281 -25.984375 9.578125 -25.429688 9.421875 -24.796875 L 9.34375 -2.21875 C 9.34375 -1.21875 9.039062 -0.519531 8.4375 -0.125 C 7.832031 0.269531 7.160156 0.441406 6.421875 0.390625 C 5.679688 0.335938 5.003906 0.113281 4.390625 -0.28125 C 3.785156 -0.675781 3.484375 -1.191406 3.484375 -1.828125 Z M 2.9375 -33.1875 C 2.9375 -34.1875 3.265625 -35.03125 3.921875 -35.71875 C 4.578125 -36.40625 5.410156 -36.75 6.421875 -36.75 C 7.421875 -36.75 8.265625 -36.40625 8.953125 -35.71875 C 9.640625 -35.03125 9.984375 -34.1875 9.984375 -33.1875 C 9.984375 -32.1875 9.640625 -31.351562 8.953125 -30.6875 C 8.265625 -30.03125 7.421875 -29.703125 6.421875 -29.703125 C 5.410156 -29.703125 4.578125 -30.03125 3.921875 -30.6875 C 3.265625 -31.351562 2.9375 -32.1875 2.9375 -33.1875 Z M 2.9375 -33.1875 "/></g></g></g><g fill="#fbc400" fill-opacity="1"><g transform="translate(136.968654, 62.438711)"><g><path d="M 2.0625 -13.46875 C 2.0625 -15.363281 2.414062 -17.179688 3.125 -18.921875 C 3.84375 -20.671875 4.832031 -22.191406 6.09375 -23.484375 C 7.363281 -24.773438 8.84375 -25.800781 10.53125 -26.5625 C 12.21875 -27.332031 14.015625 -27.71875 15.921875 -27.71875 C 17.816406 -27.71875 19.609375 -27.332031 21.296875 -26.5625 C 22.992188 -25.800781 24.472656 -24.773438 25.734375 -23.484375 C 27.003906 -22.191406 27.992188 -20.671875 28.703125 -18.921875 C 29.421875 -17.179688 29.78125 -15.363281 29.78125 -13.46875 C 29.78125 -11.5625 29.421875 -9.738281 28.703125 -8 C 27.992188 -6.257812 27.003906 -4.726562 25.734375 -3.40625 C 24.472656 -2.082031 22.992188 -1.035156 21.296875 -0.265625 C 19.609375 0.492188 17.816406 0.875 15.921875 0.875 C 14.015625 0.875 12.21875 0.492188 10.53125 -0.265625 C 8.84375 -1.035156 7.363281 -2.082031 6.09375 -3.40625 C 4.832031 -4.726562 3.84375 -6.257812 3.125 -8 C 2.414062 -9.738281 2.0625 -11.5625 2.0625 -13.46875 Z M 7.84375 -13.390625 C 7.84375 -12.273438 8.050781 -11.21875 8.46875 -10.21875 C 8.894531 -9.21875 9.476562 -8.332031 10.21875 -7.5625 C 10.957031 -6.800781 11.800781 -6.191406 12.75 -5.734375 C 13.695312 -5.285156 14.726562 -5.0625 15.84375 -5.0625 C 16.945312 -5.0625 17.972656 -5.285156 18.921875 -5.734375 C 19.878906 -6.191406 20.726562 -6.800781 21.46875 -7.5625 C 22.207031 -8.332031 22.785156 -9.21875 23.203125 -10.21875 C 23.628906 -11.21875 23.84375 -12.273438 23.84375 -13.390625 C 23.84375 -14.492188 23.628906 -15.546875 23.203125 -16.546875 C 22.785156 -17.554688 22.207031 -18.429688 21.46875 -19.171875 C 20.726562 -19.910156 19.878906 -20.503906 18.921875 -20.953125 C 17.972656 -21.398438 16.945312 -21.625 15.84375 -21.625 C 14.726562 -21.625 13.695312 -21.398438 12.75 -20.953125 C 11.800781 -20.503906 10.957031 -19.910156 10.21875 -19.171875 C 9.476562 -18.429688 8.894531 -17.554688 8.46875 -16.546875 C 8.050781 -15.546875 7.84375 -14.492188 7.84375 -13.390625 Z M 7.84375 -13.390625 "/></g></g></g></g></g></svg>