<svg xmlns="http://www.w3.org/2000/svg" xmlns:xlink="http://www.w3.org/1999/xlink" width="1920" zoomAndPan="magnify" viewBox="0 0 1440 809.999993" height="1080" preserveAspectRatio="xMidYMid meet" version="1.0"><metadata/><defs><g/><clipPath id="3c1bf7b2d8"><rect x="0" width="455" y="0" height="217"/></clipPath></defs><path fill="#000000" d="M 384.875 302.019531 C 366.59375 302.019531 351.800781 316.8125 351.800781 335.097656 C 351.800781 352.507812 365.261719 366.746094 382.304688 368.078125 C 387.449219 405.472656 419.511719 434.320312 458.375 434.320312 L 484.101562 434.320312 L 484.101562 346.121094 L 384.875 346.121094 C 378.765625 346.121094 373.851562 341.207031 373.851562 335.097656 C 373.851562 328.984375 378.765625 324.070312 384.875 324.070312 L 561.277344 324.070312 C 567.386719 324.070312 572.300781 319.15625 572.300781 313.046875 C 572.300781 306.9375 567.386719 302.019531 561.277344 302.019531 Z M 454.699219 496.796875 C 454.699219 502.90625 459.617188 507.820312 465.726562 507.820312 L 498.800781 507.820312 L 498.800781 474.652344 L 469.355469 464.363281 C 463.613281 462.34375 457.320312 465.375 455.296875 471.117188 C 453.277344 476.859375 456.308594 483.152344 462.050781 485.171875 L 464.117188 485.910156 C 458.835938 486.644531 454.699219 491.238281 454.699219 496.796875 Z M 513.5 507.5 C 530.222656 505.984375 545.425781 499.414062 557.644531 489.308594 L 517.910156 473.414062 C 516.53125 474.242188 515.0625 474.882812 513.5 475.390625 Z M 568.902344 477.960938 C 580.203125 464.042969 587 446.3125 587 426.972656 C 587 421.320312 586.402344 415.808594 585.300781 410.480469 L 527.648438 450.445312 C 528.015625 452.007812 528.199219 453.660156 528.199219 455.3125 C 528.199219 457.425781 527.878906 459.449219 527.328125 461.332031 Z M 506.152344 346.121094 L 498.800781 346.121094 L 498.800781 434.320312 L 507.207031 434.320312 C 511.753906 434.320312 515.980469 435.789062 519.425781 438.226562 L 580.753906 395.78125 C 568.535156 366.609375 539.730469 346.121094 506.152344 346.121094 Z M 428.976562 375.519531 C 428.976562 369.410156 433.890625 364.496094 440 364.496094 C 446.109375 364.496094 451.027344 369.410156 451.027344 375.519531 C 451.027344 381.628906 446.109375 386.546875 440 386.546875 C 433.890625 386.546875 428.976562 381.628906 428.976562 375.519531 Z M 428.976562 375.519531 " fill-opacity="1" fill-rule="nonzero"/><g transform="matrix(1, 0, 0, 1, 653, 303)"><g clip-path="url(#3c1bf7b2d8)"><g fill="#000000" fill-opacity="1"><g transform="translate(0.934296, 92.671227)"><g><path d="M 32.953125 -10.78125 C 34.578125 -10.78125 36.335938 -11.035156 38.234375 -11.546875 C 40.140625 -12.054688 41.785156 -12.898438 43.171875 -14.078125 C 44.566406 -15.265625 45.265625 -16.878906 45.265625 -18.921875 C 45.265625 -20.816406 44.535156 -22.335938 43.078125 -23.484375 C 41.617188 -24.640625 39.703125 -25.585938 37.328125 -26.328125 C 34.953125 -27.078125 32.359375 -27.773438 29.546875 -28.421875 C 26.734375 -29.066406 23.898438 -29.847656 21.046875 -30.765625 C 18.203125 -31.679688 15.59375 -32.882812 13.21875 -34.375 C 10.84375 -35.863281 8.925781 -37.796875 7.46875 -40.171875 C 6.007812 -42.546875 5.28125 -45.5625 5.28125 -49.21875 C 5.28125 -52.8125 6.023438 -55.914062 7.515625 -58.53125 C 9.015625 -61.144531 11 -63.3125 13.46875 -65.03125 C 15.945312 -66.757812 18.726562 -68.046875 21.8125 -68.890625 C 24.894531 -69.742188 28 -70.171875 31.125 -70.171875 C 35.863281 -70.171875 40.300781 -69.425781 44.4375 -67.9375 C 48.570312 -66.445312 51.945312 -64.085938 54.5625 -60.859375 C 57.175781 -57.640625 58.550781 -53.390625 58.6875 -48.109375 L 43.9375 -48.109375 C 43.53125 -51.703125 42.273438 -54.191406 40.171875 -55.578125 C 38.066406 -56.972656 35.117188 -57.671875 31.328125 -57.671875 C 29.898438 -57.671875 28.390625 -57.429688 26.796875 -56.953125 C 25.203125 -56.472656 23.84375 -55.707031 22.71875 -54.65625 C 21.601562 -53.613281 21.046875 -52.207031 21.046875 -50.4375 C 21.046875 -48.675781 21.773438 -47.285156 23.234375 -46.265625 C 24.691406 -45.253906 26.609375 -44.410156 28.984375 -43.734375 C 31.359375 -43.054688 33.96875 -42.410156 36.8125 -41.796875 C 39.664062 -41.191406 42.5 -40.445312 45.3125 -39.5625 C 48.125 -38.675781 50.71875 -37.46875 53.09375 -35.9375 C 55.46875 -34.414062 57.378906 -32.4375 58.828125 -30 C 60.285156 -27.5625 61.015625 -24.441406 61.015625 -20.640625 C 61.015625 -16.578125 60.203125 -13.117188 58.578125 -10.265625 C 56.953125 -7.421875 54.765625 -5.132812 52.015625 -3.40625 C 49.273438 -1.675781 46.191406 -0.40625 42.765625 0.40625 C 39.335938 1.21875 35.863281 1.625 32.34375 1.625 C 27.257812 1.625 22.492188 0.757812 18.046875 -0.96875 C 13.609375 -2.695312 10.015625 -5.359375 7.265625 -8.953125 C 4.523438 -12.546875 3.117188 -17.15625 3.046875 -22.78125 L 18.515625 -22.78125 C 18.710938 -18.644531 20.234375 -15.609375 23.078125 -13.671875 C 25.929688 -11.742188 29.222656 -10.78125 32.953125 -10.78125 Z M 32.953125 -10.78125 "/></g></g></g><g fill="#000000" fill-opacity="1"><g transform="translate(78.832167, 92.671227)"><g><path d="M 44.140625 -69.15625 L 60.40625 -69.15625 L 60.40625 0 L 44.140625 0 L 44.140625 -27.765625 L 21.359375 -27.765625 L 21.359375 0 L 6.109375 0 L 6.109375 -69.15625 L 21.359375 -69.15625 L 21.359375 -41.59375 L 44.140625 -41.59375 Z M 44.140625 -69.15625 "/></g></g></g><g fill="#000000" fill-opacity="1"><g transform="translate(159.170535, 92.671227)"><g><path d="M 21.359375 -24.71875 L 21.359375 0 L 6.109375 0 L 6.109375 -69.15625 L 32.03125 -69.15625 C 35.757812 -69.15625 39.234375 -68.222656 42.453125 -66.359375 C 45.679688 -64.492188 48.273438 -61.898438 50.234375 -58.578125 C 52.203125 -55.253906 53.1875 -51.390625 53.1875 -46.984375 C 53.1875 -43.117188 52.472656 -39.691406 51.046875 -36.703125 C 49.628906 -33.722656 47.734375 -31.285156 45.359375 -29.390625 C 42.984375 -27.492188 40.335938 -26.171875 37.421875 -25.421875 L 57.265625 0 L 37.9375 0 L 21.453125 -24.71875 Z M 29.5 -57.15625 L 21.359375 -57.15625 L 21.359375 -36.71875 L 29.5 -36.71875 C 31.726562 -36.71875 33.804688 -37.597656 35.734375 -39.359375 C 37.671875 -41.117188 38.640625 -43.660156 38.640625 -46.984375 C 38.640625 -50.171875 37.671875 -52.660156 35.734375 -54.453125 C 33.804688 -56.253906 31.726562 -57.15625 29.5 -57.15625 Z M 29.5 -57.15625 "/></g></g></g><g fill="#000000" fill-opacity="1"><g transform="translate(229.035089, 92.671227)"><g><path d="M 21.359375 0 L 6.109375 0 L 6.109375 -69.15625 L 21.359375 -69.15625 Z M 21.359375 0 "/></g></g></g><g fill="#000000" fill-opacity="1"><g transform="translate(270.32536, 92.671227)"><g><path d="M 92.34375 0 L 75.5625 0 L 67.421875 -47.703125 L 53.90625 0 L 38.953125 0 L 25.421875 -47.703125 L 17.296875 0 L 0.515625 0 L 13.9375 -69.15625 L 32.03125 -69.15625 L 46.484375 -20.640625 L 60.8125 -69.15625 L 78.921875 -69.15625 Z M 92.34375 0 "/></g></g></g><g fill="#000000" fill-opacity="1"><g transform="translate(377.000871, 92.671227)"><g><path d="M 21.359375 -24.71875 L 21.359375 0 L 6.109375 0 L 6.109375 -69.15625 L 32.03125 -69.15625 C 35.757812 -69.15625 39.234375 -68.222656 42.453125 -66.359375 C 45.679688 -64.492188 48.273438 -61.898438 50.234375 -58.578125 C 52.203125 -55.253906 53.1875 -51.390625 53.1875 -46.984375 C 53.1875 -42.304688 52.203125 -38.304688 50.234375 -34.984375 C 48.273438 -31.660156 45.679688 -29.117188 42.453125 -27.359375 C 39.234375 -25.597656 35.757812 -24.71875 32.03125 -24.71875 Z M 29.5 -57.15625 L 21.359375 -57.15625 L 21.359375 -36.71875 L 29.5 -36.71875 C 31.726562 -36.71875 33.804688 -37.597656 35.734375 -39.359375 C 37.671875 -41.117188 38.640625 -43.660156 38.640625 -46.984375 C 38.640625 -50.171875 37.671875 -52.660156 35.734375 -54.453125 C 33.804688 -56.253906 31.726562 -57.15625 29.5 -57.15625 Z M 29.5 -57.15625 "/></g></g></g><g fill="#000000" fill-opacity="1"><g transform="translate(3.562021, 187.864287)"><g><path d="M 32.953125 -10.78125 C 34.578125 -10.78125 36.335938 -11.035156 38.234375 -11.546875 C 40.140625 -12.054688 41.785156 -12.898438 43.171875 -14.078125 C 44.566406 -15.265625 45.265625 -16.878906 45.265625 -18.921875 C 45.265625 -20.816406 44.535156 -22.335938 43.078125 -23.484375 C 41.617188 -24.640625 39.703125 -25.585938 37.328125 -26.328125 C 34.953125 -27.078125 32.359375 -27.773438 29.546875 -28.421875 C 26.734375 -29.066406 23.898438 -29.847656 21.046875 -30.765625 C 18.203125 -31.679688 15.59375 -32.882812 13.21875 -34.375 C 10.84375 -35.863281 8.925781 -37.796875 7.46875 -40.171875 C 6.007812 -42.546875 5.28125 -45.5625 5.28125 -49.21875 C 5.28125 -52.8125 6.023438 -55.914062 7.515625 -58.53125 C 9.015625 -61.144531 11 -63.3125 13.46875 -65.03125 C 15.945312 -66.757812 18.726562 -68.046875 21.8125 -68.890625 C 24.894531 -69.742188 28 -70.171875 31.125 -70.171875 C 35.863281 -70.171875 40.300781 -69.425781 44.4375 -67.9375 C 48.570312 -66.445312 51.945312 -64.085938 54.5625 -60.859375 C 57.175781 -57.640625 58.550781 -53.390625 58.6875 -48.109375 L 43.9375 -48.109375 C 43.53125 -51.703125 42.273438 -54.191406 40.171875 -55.578125 C 38.066406 -56.972656 35.117188 -57.671875 31.328125 -57.671875 C 29.898438 -57.671875 28.390625 -57.429688 26.796875 -56.953125 C 25.203125 -56.472656 23.84375 -55.707031 22.71875 -54.65625 C 21.601562 -53.613281 21.046875 -52.207031 21.046875 -50.4375 C 21.046875 -48.675781 21.773438 -47.285156 23.234375 -46.265625 C 24.691406 -45.253906 26.609375 -44.410156 28.984375 -43.734375 C 31.359375 -43.054688 33.96875 -42.410156 36.8125 -41.796875 C 39.664062 -41.191406 42.5 -40.445312 45.3125 -39.5625 C 48.125 -38.675781 50.71875 -37.46875 53.09375 -35.9375 C 55.46875 -34.414062 57.378906 -32.4375 58.828125 -30 C 60.285156 -27.5625 61.015625 -24.441406 61.015625 -20.640625 C 61.015625 -16.578125 60.203125 -13.117188 58.578125 -10.265625 C 56.953125 -7.421875 54.765625 -5.132812 52.015625 -3.40625 C 49.273438 -1.675781 46.191406 -0.40625 42.765625 0.40625 C 39.335938 1.21875 35.863281 1.625 32.34375 1.625 C 27.257812 1.625 22.492188 0.757812 18.046875 -0.96875 C 13.609375 -2.695312 10.015625 -5.359375 7.265625 -8.953125 C 4.523438 -12.546875 3.117188 -17.15625 3.046875 -22.78125 L 18.515625 -22.78125 C 18.710938 -18.644531 20.234375 -15.609375 23.078125 -13.671875 C 25.929688 -11.742188 29.222656 -10.78125 32.953125 -10.78125 Z M 32.953125 -10.78125 "/></g></g></g><g fill="#000000" fill-opacity="1"><g transform="translate(81.459892, 187.864287)"><g><path d="M 35.5 -55.328125 L 35.5 0 L 20.234375 0 L 20.234375 -55.328125 L 0.515625 -55.328125 L 0.515625 -69.15625 L 55.21875 -69.15625 L 55.21875 -55.328125 Z M 35.5 -55.328125 "/></g></g></g><g fill="#000000" fill-opacity="1"><g transform="translate(151.019365, 187.864287)"><g><path d="M 46.484375 -69.15625 L 61.734375 -69.15625 L 61.734375 -26.953125 C 61.734375 -17.734375 59.222656 -10.765625 54.203125 -6.046875 C 49.191406 -1.335938 42.175781 1.015625 33.15625 1.015625 C 24.132812 1.015625 17.113281 -1.335938 12.09375 -6.046875 C 7.082031 -10.765625 4.578125 -17.734375 4.578125 -26.953125 L 4.578125 -69.15625 L 19.828125 -69.15625 L 19.828125 -29.1875 C 19.828125 -24.4375 20.757812 -20.753906 22.625 -18.140625 C 24.488281 -15.535156 28 -14.234375 33.15625 -14.234375 C 38.375 -14.234375 41.898438 -15.535156 43.734375 -18.140625 C 45.566406 -20.753906 46.484375 -24.4375 46.484375 -29.1875 Z M 46.484375 -69.15625 "/></g></g></g><g fill="#000000" fill-opacity="1"><g transform="translate(231.154379, 187.864287)"><g><path d="M 21.15625 -14.03125 L 25.734375 -14.03125 C 29.660156 -14.03125 33.097656 -14.945312 36.046875 -16.78125 C 39.003906 -18.613281 41.3125 -21.085938 42.96875 -24.203125 C 44.632812 -27.328125 45.46875 -30.785156 45.46875 -34.578125 C 45.46875 -38.441406 44.632812 -41.914062 42.96875 -45 C 41.3125 -48.082031 39.003906 -50.519531 36.046875 -52.3125 C 33.097656 -54.113281 29.660156 -55.015625 25.734375 -55.015625 L 21.15625 -55.015625 Z M 6.109375 -69.15625 L 26.640625 -69.15625 C 31.523438 -69.15625 36.050781 -68.273438 40.21875 -66.515625 C 44.394531 -64.753906 48.039062 -62.3125 51.15625 -59.1875 C 54.269531 -56.070312 56.691406 -52.410156 58.421875 -48.203125 C 60.148438 -44.003906 61.015625 -39.460938 61.015625 -34.578125 C 61.015625 -29.691406 60.148438 -25.144531 58.421875 -20.9375 C 56.691406 -16.738281 54.285156 -13.078125 51.203125 -9.953125 C 48.117188 -6.835938 44.472656 -4.398438 40.265625 -2.640625 C 36.066406 -0.878906 31.523438 0 26.640625 0 L 6.109375 0 Z M 6.109375 -69.15625 "/></g></g></g><g fill="#000000" fill-opacity="1"><g transform="translate(309.560686, 187.864287)"><g><path d="M 21.359375 0 L 6.109375 0 L 6.109375 -69.15625 L 21.359375 -69.15625 Z M 21.359375 0 "/></g></g></g><g fill="#000000" fill-opacity="1"><g transform="translate(350.850957, 187.864287)"><g><path d="M 59.5 -34.6875 C 59.5 -38.28125 58.546875 -41.617188 56.640625 -44.703125 C 54.742188 -47.785156 52.253906 -50.273438 49.171875 -52.171875 C 46.085938 -54.066406 42.75 -55.015625 39.15625 -55.015625 C 35.625 -55.015625 32.300781 -54.066406 29.1875 -52.171875 C 26.070312 -50.273438 23.5625 -47.785156 21.65625 -44.703125 C 19.757812 -41.617188 18.8125 -38.28125 18.8125 -34.6875 C 18.8125 -31.15625 19.757812 -27.828125 21.65625 -24.703125 C 23.5625 -21.585938 26.070312 -19.0625 29.1875 -17.125 C 32.300781 -15.195312 35.625 -14.234375 39.15625 -14.234375 C 42.75 -14.234375 46.085938 -15.195312 49.171875 -17.125 C 52.253906 -19.0625 54.742188 -21.585938 56.640625 -24.703125 C 58.546875 -27.828125 59.5 -31.15625 59.5 -34.6875 Z M 74.75 -34.578125 C 74.75 -29.828125 73.800781 -25.300781 71.90625 -21 C 70.007812 -16.695312 67.414062 -12.898438 64.125 -9.609375 C 60.832031 -6.316406 57.050781 -3.722656 52.78125 -1.828125 C 48.507812 0.0664062 43.96875 1.015625 39.15625 1.015625 C 34.40625 1.015625 29.878906 0.0664062 25.578125 -1.828125 C 21.273438 -3.722656 17.476562 -6.316406 14.1875 -9.609375 C 10.894531 -12.898438 8.300781 -16.695312 6.40625 -21 C 4.507812 -25.300781 3.5625 -29.828125 3.5625 -34.578125 C 3.5625 -39.390625 4.507812 -43.929688 6.40625 -48.203125 C 8.300781 -52.472656 10.894531 -56.253906 14.1875 -59.546875 C 17.476562 -62.835938 21.273438 -65.429688 25.578125 -67.328125 C 29.878906 -69.222656 34.40625 -70.171875 39.15625 -70.171875 C 43.96875 -70.171875 48.507812 -69.222656 52.78125 -67.328125 C 57.050781 -65.429688 60.832031 -62.835938 64.125 -59.546875 C 67.414062 -56.253906 70.007812 -52.472656 71.90625 -48.203125 C 73.800781 -43.929688 74.75 -39.390625 74.75 -34.578125 Z M 74.75 -34.578125 "/></g></g></g><g fill="#000000" fill-opacity="1"><g transform="translate(3.731327, 92.622418)"><g><path d="M 32.953125 -10.78125 C 34.578125 -10.78125 36.335938 -11.035156 38.234375 -11.546875 C 40.140625 -12.054688 41.785156 -12.898438 43.171875 -14.078125 C 44.566406 -15.265625 45.265625 -16.878906 45.265625 -18.921875 C 45.265625 -20.816406 44.535156 -22.335938 43.078125 -23.484375 C 41.617188 -24.640625 39.703125 -25.585938 37.328125 -26.328125 C 34.953125 -27.078125 32.359375 -27.773438 29.546875 -28.421875 C 26.734375 -29.066406 23.898438 -29.847656 21.046875 -30.765625 C 18.203125 -31.679688 15.59375 -32.882812 13.21875 -34.375 C 10.84375 -35.863281 8.925781 -37.796875 7.46875 -40.171875 C 6.007812 -42.546875 5.28125 -45.5625 5.28125 -49.21875 C 5.28125 -52.8125 6.023438 -55.914062 7.515625 -58.53125 C 9.015625 -61.144531 11 -63.3125 13.46875 -65.03125 C 15.945312 -66.757812 18.726562 -68.046875 21.8125 -68.890625 C 24.894531 -69.742188 28 -70.171875 31.125 -70.171875 C 35.863281 -70.171875 40.300781 -69.425781 44.4375 -67.9375 C 48.570312 -66.445312 51.945312 -64.085938 54.5625 -60.859375 C 57.175781 -57.640625 58.550781 -53.390625 58.6875 -48.109375 L 43.9375 -48.109375 C 43.53125 -51.703125 42.273438 -54.191406 40.171875 -55.578125 C 38.066406 -56.972656 35.117188 -57.671875 31.328125 -57.671875 C 29.898438 -57.671875 28.390625 -57.429688 26.796875 -56.953125 C 25.203125 -56.472656 23.84375 -55.707031 22.71875 -54.65625 C 21.601562 -53.613281 21.046875 -52.207031 21.046875 -50.4375 C 21.046875 -48.675781 21.773438 -47.285156 23.234375 -46.265625 C 24.691406 -45.253906 26.609375 -44.410156 28.984375 -43.734375 C 31.359375 -43.054688 33.96875 -42.410156 36.8125 -41.796875 C 39.664062 -41.191406 42.5 -40.445312 45.3125 -39.5625 C 48.125 -38.675781 50.71875 -37.46875 53.09375 -35.9375 C 55.46875 -34.414062 57.378906 -32.4375 58.828125 -30 C 60.285156 -27.5625 61.015625 -24.441406 61.015625 -20.640625 C 61.015625 -16.578125 60.203125 -13.117188 58.578125 -10.265625 C 56.953125 -7.421875 54.765625 -5.132812 52.015625 -3.40625 C 49.273438 -1.675781 46.191406 -0.40625 42.765625 0.40625 C 39.335938 1.21875 35.863281 1.625 32.34375 1.625 C 27.257812 1.625 22.492188 0.757812 18.046875 -0.96875 C 13.609375 -2.695312 10.015625 -5.359375 7.265625 -8.953125 C 4.523438 -12.546875 3.117188 -17.15625 3.046875 -22.78125 L 18.515625 -22.78125 C 18.710938 -18.644531 20.234375 -15.609375 23.078125 -13.671875 C 25.929688 -11.742188 29.222656 -10.78125 32.953125 -10.78125 Z M 32.953125 -10.78125 "/></g></g></g><g fill="#000000" fill-opacity="1"><g transform="translate(81.629198, 92.622418)"><g><path d="M 44.140625 -69.15625 L 60.40625 -69.15625 L 60.40625 0 L 44.140625 0 L 44.140625 -27.765625 L 21.359375 -27.765625 L 21.359375 0 L 6.109375 0 L 6.109375 -69.15625 L 21.359375 -69.15625 L 21.359375 -41.59375 L 44.140625 -41.59375 Z M 44.140625 -69.15625 "/></g></g></g><g fill="#000000" fill-opacity="1"><g transform="translate(161.967566, 92.622418)"><g><path d="M 21.359375 -24.71875 L 21.359375 0 L 6.109375 0 L 6.109375 -69.15625 L 32.03125 -69.15625 C 35.757812 -69.15625 39.234375 -68.222656 42.453125 -66.359375 C 45.679688 -64.492188 48.273438 -61.898438 50.234375 -58.578125 C 52.203125 -55.253906 53.1875 -51.390625 53.1875 -46.984375 C 53.1875 -43.117188 52.472656 -39.691406 51.046875 -36.703125 C 49.628906 -33.722656 47.734375 -31.285156 45.359375 -29.390625 C 42.984375 -27.492188 40.335938 -26.171875 37.421875 -25.421875 L 57.265625 0 L 37.9375 0 L 21.453125 -24.71875 Z M 29.5 -57.15625 L 21.359375 -57.15625 L 21.359375 -36.71875 L 29.5 -36.71875 C 31.726562 -36.71875 33.804688 -37.597656 35.734375 -39.359375 C 37.671875 -41.117188 38.640625 -43.660156 38.640625 -46.984375 C 38.640625 -50.171875 37.671875 -52.660156 35.734375 -54.453125 C 33.804688 -56.253906 31.726562 -57.15625 29.5 -57.15625 Z M 29.5 -57.15625 "/></g></g></g><g fill="#000000" fill-opacity="1"><g transform="translate(231.83212, 92.622418)"><g><path d="M 21.359375 0 L 6.109375 0 L 6.109375 -69.15625 L 21.359375 -69.15625 Z M 21.359375 0 "/></g></g></g><g fill="#000000" fill-opacity="1"><g transform="translate(273.122391, 92.622418)"><g><path d="M 92.34375 0 L 75.5625 0 L 67.421875 -47.703125 L 53.90625 0 L 38.953125 0 L 25.421875 -47.703125 L 17.296875 0 L 0.515625 0 L 13.9375 -69.15625 L 32.03125 -69.15625 L 46.484375 -20.640625 L 60.8125 -69.15625 L 78.921875 -69.15625 Z M 92.34375 0 "/></g></g></g><g fill="#000000" fill-opacity="1"><g transform="translate(379.797902, 92.622418)"><g><path d="M 21.359375 -24.71875 L 21.359375 0 L 6.109375 0 L 6.109375 -69.15625 L 32.03125 -69.15625 C 35.757812 -69.15625 39.234375 -68.222656 42.453125 -66.359375 C 45.679688 -64.492188 48.273438 -61.898438 50.234375 -58.578125 C 52.203125 -55.253906 53.1875 -51.390625 53.1875 -46.984375 C 53.1875 -42.304688 52.203125 -38.304688 50.234375 -34.984375 C 48.273438 -31.660156 45.679688 -29.117188 42.453125 -27.359375 C 39.234375 -25.597656 35.757812 -24.71875 32.03125 -24.71875 Z M 29.5 -57.15625 L 21.359375 -57.15625 L 21.359375 -36.71875 L 29.5 -36.71875 C 31.726562 -36.71875 33.804688 -37.597656 35.734375 -39.359375 C 37.671875 -41.117188 38.640625 -43.660156 38.640625 -46.984375 C 38.640625 -50.171875 37.671875 -52.660156 35.734375 -54.453125 C 33.804688 -56.253906 31.726562 -57.15625 29.5 -57.15625 Z M 29.5 -57.15625 "/></g></g></g><g fill="#000000" fill-opacity="1"><g transform="translate(6.359052, 187.815479)"><g><path d="M 32.953125 -10.78125 C 34.578125 -10.78125 36.335938 -11.035156 38.234375 -11.546875 C 40.140625 -12.054688 41.785156 -12.898438 43.171875 -14.078125 C 44.566406 -15.265625 45.265625 -16.878906 45.265625 -18.921875 C 45.265625 -20.816406 44.535156 -22.335938 43.078125 -23.484375 C 41.617188 -24.640625 39.703125 -25.585938 37.328125 -26.328125 C 34.953125 -27.078125 32.359375 -27.773438 29.546875 -28.421875 C 26.734375 -29.066406 23.898438 -29.847656 21.046875 -30.765625 C 18.203125 -31.679688 15.59375 -32.882812 13.21875 -34.375 C 10.84375 -35.863281 8.925781 -37.796875 7.46875 -40.171875 C 6.007812 -42.546875 5.28125 -45.5625 5.28125 -49.21875 C 5.28125 -52.8125 6.023438 -55.914062 7.515625 -58.53125 C 9.015625 -61.144531 11 -63.3125 13.46875 -65.03125 C 15.945312 -66.757812 18.726562 -68.046875 21.8125 -68.890625 C 24.894531 -69.742188 28 -70.171875 31.125 -70.171875 C 35.863281 -70.171875 40.300781 -69.425781 44.4375 -67.9375 C 48.570312 -66.445312 51.945312 -64.085938 54.5625 -60.859375 C 57.175781 -57.640625 58.550781 -53.390625 58.6875 -48.109375 L 43.9375 -48.109375 C 43.53125 -51.703125 42.273438 -54.191406 40.171875 -55.578125 C 38.066406 -56.972656 35.117188 -57.671875 31.328125 -57.671875 C 29.898438 -57.671875 28.390625 -57.429688 26.796875 -56.953125 C 25.203125 -56.472656 23.84375 -55.707031 22.71875 -54.65625 C 21.601562 -53.613281 21.046875 -52.207031 21.046875 -50.4375 C 21.046875 -48.675781 21.773438 -47.285156 23.234375 -46.265625 C 24.691406 -45.253906 26.609375 -44.410156 28.984375 -43.734375 C 31.359375 -43.054688 33.96875 -42.410156 36.8125 -41.796875 C 39.664062 -41.191406 42.5 -40.445312 45.3125 -39.5625 C 48.125 -38.675781 50.71875 -37.46875 53.09375 -35.9375 C 55.46875 -34.414062 57.378906 -32.4375 58.828125 -30 C 60.285156 -27.5625 61.015625 -24.441406 61.015625 -20.640625 C 61.015625 -16.578125 60.203125 -13.117188 58.578125 -10.265625 C 56.953125 -7.421875 54.765625 -5.132812 52.015625 -3.40625 C 49.273438 -1.675781 46.191406 -0.40625 42.765625 0.40625 C 39.335938 1.21875 35.863281 1.625 32.34375 1.625 C 27.257812 1.625 22.492188 0.757812 18.046875 -0.96875 C 13.609375 -2.695312 10.015625 -5.359375 7.265625 -8.953125 C 4.523438 -12.546875 3.117188 -17.15625 3.046875 -22.78125 L 18.515625 -22.78125 C 18.710938 -18.644531 20.234375 -15.609375 23.078125 -13.671875 C 25.929688 -11.742188 29.222656 -10.78125 32.953125 -10.78125 Z M 32.953125 -10.78125 "/></g></g></g><g fill="#000000" fill-opacity="1"><g transform="translate(84.256923, 187.815479)"><g><path d="M 35.5 -55.328125 L 35.5 0 L 20.234375 0 L 20.234375 -55.328125 L 0.515625 -55.328125 L 0.515625 -69.15625 L 55.21875 -69.15625 L 55.21875 -55.328125 Z M 35.5 -55.328125 "/></g></g></g><g fill="#000000" fill-opacity="1"><g transform="translate(153.816397, 187.815479)"><g><path d="M 46.484375 -69.15625 L 61.734375 -69.15625 L 61.734375 -26.953125 C 61.734375 -17.734375 59.222656 -10.765625 54.203125 -6.046875 C 49.191406 -1.335938 42.175781 1.015625 33.15625 1.015625 C 24.132812 1.015625 17.113281 -1.335938 12.09375 -6.046875 C 7.082031 -10.765625 4.578125 -17.734375 4.578125 -26.953125 L 4.578125 -69.15625 L 19.828125 -69.15625 L 19.828125 -29.1875 C 19.828125 -24.4375 20.757812 -20.753906 22.625 -18.140625 C 24.488281 -15.535156 28 -14.234375 33.15625 -14.234375 C 38.375 -14.234375 41.898438 -15.535156 43.734375 -18.140625 C 45.566406 -20.753906 46.484375 -24.4375 46.484375 -29.1875 Z M 46.484375 -69.15625 "/></g></g></g><g fill="#000000" fill-opacity="1"><g transform="translate(233.95141, 187.815479)"><g><path d="M 21.15625 -14.03125 L 25.734375 -14.03125 C 29.660156 -14.03125 33.097656 -14.945312 36.046875 -16.78125 C 39.003906 -18.613281 41.3125 -21.085938 42.96875 -24.203125 C 44.632812 -27.328125 45.46875 -30.785156 45.46875 -34.578125 C 45.46875 -38.441406 44.632812 -41.914062 42.96875 -45 C 41.3125 -48.082031 39.003906 -50.519531 36.046875 -52.3125 C 33.097656 -54.113281 29.660156 -55.015625 25.734375 -55.015625 L 21.15625 -55.015625 Z M 6.109375 -69.15625 L 26.640625 -69.15625 C 31.523438 -69.15625 36.050781 -68.273438 40.21875 -66.515625 C 44.394531 -64.753906 48.039062 -62.3125 51.15625 -59.1875 C 54.269531 -56.070312 56.691406 -52.410156 58.421875 -48.203125 C 60.148438 -44.003906 61.015625 -39.460938 61.015625 -34.578125 C 61.015625 -29.691406 60.148438 -25.144531 58.421875 -20.9375 C 56.691406 -16.738281 54.285156 -13.078125 51.203125 -9.953125 C 48.117188 -6.835938 44.472656 -4.398438 40.265625 -2.640625 C 36.066406 -0.878906 31.523438 0 26.640625 0 L 6.109375 0 Z M 6.109375 -69.15625 "/></g></g></g><g fill="#000000" fill-opacity="1"><g transform="translate(312.357717, 187.815479)"><g><path d="M 21.359375 0 L 6.109375 0 L 6.109375 -69.15625 L 21.359375 -69.15625 Z M 21.359375 0 "/></g></g></g><g fill="#000000" fill-opacity="1"><g transform="translate(353.647988, 187.815479)"><g><path d="M 59.5 -34.6875 C 59.5 -38.28125 58.546875 -41.617188 56.640625 -44.703125 C 54.742188 -47.785156 52.253906 -50.273438 49.171875 -52.171875 C 46.085938 -54.066406 42.75 -55.015625 39.15625 -55.015625 C 35.625 -55.015625 32.300781 -54.066406 29.1875 -52.171875 C 26.070312 -50.273438 23.5625 -47.785156 21.65625 -44.703125 C 19.757812 -41.617188 18.8125 -38.28125 18.8125 -34.6875 C 18.8125 -31.15625 19.757812 -27.828125 21.65625 -24.703125 C 23.5625 -21.585938 26.070312 -19.0625 29.1875 -17.125 C 32.300781 -15.195312 35.625 -14.234375 39.15625 -14.234375 C 42.75 -14.234375 46.085938 -15.195312 49.171875 -17.125 C 52.253906 -19.0625 54.742188 -21.585938 56.640625 -24.703125 C 58.546875 -27.828125 59.5 -31.15625 59.5 -34.6875 Z M 74.75 -34.578125 C 74.75 -29.828125 73.800781 -25.300781 71.90625 -21 C 70.007812 -16.695312 67.414062 -12.898438 64.125 -9.609375 C 60.832031 -6.316406 57.050781 -3.722656 52.78125 -1.828125 C 48.507812 0.0664062 43.96875 1.015625 39.15625 1.015625 C 34.40625 1.015625 29.878906 0.0664062 25.578125 -1.828125 C 21.273438 -3.722656 17.476562 -6.316406 14.1875 -9.609375 C 10.894531 -12.898438 8.300781 -16.695312 6.40625 -21 C 4.507812 -25.300781 3.5625 -29.828125 3.5625 -34.578125 C 3.5625 -39.390625 4.507812 -43.929688 6.40625 -48.203125 C 8.300781 -52.472656 10.894531 -56.253906 14.1875 -59.546875 C 17.476562 -62.835938 21.273438 -65.429688 25.578125 -67.328125 C 29.878906 -69.222656 34.40625 -70.171875 39.15625 -70.171875 C 43.96875 -70.171875 48.507812 -69.222656 52.78125 -67.328125 C 57.050781 -65.429688 60.832031 -62.835938 64.125 -59.546875 C 67.414062 -56.253906 70.007812 -52.472656 71.90625 -48.203125 C 73.800781 -43.929688 74.75 -39.390625 74.75 -34.578125 Z M 74.75 -34.578125 "/></g></g></g></g></g></svg>