<svg xmlns="http://www.w3.org/2000/svg" xmlns:xlink="http://www.w3.org/1999/xlink" width="1440" zoomAndPan="magnify" viewBox="0 0 1080 303.749993" height="405" preserveAspectRatio="xMidYMid meet" version="1.0"><metadata/><path fill="#000000" d="M 132.550781 26.765625 C 110.339844 26.765625 92.363281 44.746094 92.363281 66.976562 C 92.363281 88.140625 108.71875 105.449219 129.429688 107.070312 C 135.679688 152.527344 174.640625 187.597656 221.867188 187.597656 L 253.125 187.597656 L 253.125 80.378906 L 132.550781 80.378906 C 125.128906 80.378906 119.15625 74.402344 119.15625 66.976562 C 119.15625 59.542969 125.128906 53.570312 132.550781 53.570312 L 346.90625 53.570312 C 354.332031 53.570312 360.300781 47.597656 360.300781 40.171875 C 360.300781 32.742188 354.332031 26.765625 346.90625 26.765625 Z M 217.398438 263.550781 C 217.398438 270.976562 223.375 276.949219 230.796875 276.949219 L 270.988281 276.949219 L 270.988281 236.628906 L 235.207031 224.121094 C 228.230469 221.664062 220.582031 225.351562 218.125 232.332031 C 215.671875 239.3125 219.355469 246.960938 226.332031 249.417969 L 228.84375 250.3125 C 222.425781 251.207031 217.398438 256.792969 217.398438 263.550781 Z M 288.851562 276.558594 C 309.171875 274.71875 327.644531 266.730469 342.492188 254.445312 L 294.210938 235.125 C 292.535156 236.128906 290.75 236.910156 288.851562 237.527344 Z M 356.171875 240.652344 C 369.902344 223.730469 378.164062 202.175781 378.164062 178.664062 C 378.164062 171.792969 377.4375 165.09375 376.097656 158.617188 L 306.042969 207.199219 C 306.488281 209.101562 306.710938 211.109375 306.710938 213.117188 C 306.710938 215.6875 306.324219 218.148438 305.652344 220.433594 Z M 279.921875 80.378906 L 270.988281 80.378906 L 270.988281 187.597656 L 281.203125 187.597656 C 286.726562 187.597656 291.863281 189.382812 296.050781 192.347656 L 370.574219 140.746094 C 355.726562 105.285156 320.722656 80.378906 279.921875 80.378906 Z M 186.140625 116.117188 C 186.140625 108.6875 192.113281 102.714844 199.535156 102.714844 C 206.960938 102.714844 212.9375 108.6875 212.9375 116.117188 C 212.9375 123.542969 206.960938 129.523438 199.535156 129.523438 C 192.113281 129.523438 186.140625 123.542969 186.140625 116.117188 Z M 186.140625 116.117188 " fill-opacity="1" fill-rule="nonzero"/><path fill="#000000" d="M 499.539062 127.507812 C 501.515625 127.507812 503.652344 127.199219 505.957031 126.578125 C 508.273438 125.960938 510.273438 124.933594 511.957031 123.5 C 513.652344 122.054688 514.503906 120.09375 514.503906 117.609375 C 514.503906 115.308594 513.613281 113.460938 511.84375 112.066406 C 510.070312 110.660156 507.742188 109.511719 504.855469 108.609375 C 501.972656 107.695312 498.820312 106.851562 495.402344 106.0625 C 491.984375 105.277344 488.539062 104.328125 485.074219 103.214844 C 481.617188 102.101562 478.445312 100.640625 475.5625 98.824219 C 472.675781 97.015625 470.34375 94.664062 468.574219 91.777344 C 466.796875 88.890625 465.914062 85.226562 465.914062 80.78125 C 465.914062 76.410156 466.816406 72.640625 468.628906 69.460938 C 470.453125 66.28125 472.863281 63.648438 475.863281 61.558594 C 478.875 59.457031 482.253906 57.890625 486.003906 56.867188 C 489.75 55.832031 493.523438 55.308594 497.320312 55.308594 C 503.078125 55.308594 508.46875 56.214844 513.496094 58.023438 C 518.519531 59.839844 522.617188 62.707031 525.800781 66.628906 C 528.976562 70.542969 530.644531 75.707031 530.8125 82.128906 L 512.886719 82.128906 C 512.394531 77.761719 510.867188 74.734375 508.3125 73.050781 C 505.753906 71.355469 502.171875 70.503906 497.566406 70.503906 C 495.828125 70.503906 493.996094 70.796875 492.058594 71.378906 C 490.125 71.960938 488.472656 72.894531 487.105469 74.171875 C 485.746094 75.4375 485.074219 77.148438 485.074219 79.296875 C 485.074219 81.441406 485.957031 83.132812 487.730469 84.371094 C 489.5 85.601562 491.832031 86.625 494.71875 87.449219 C 497.605469 88.273438 500.773438 89.058594 504.230469 89.804688 C 507.695312 90.539062 511.140625 91.445312 514.558594 92.519531 C 517.976562 93.597656 521.128906 95.0625 524.015625 96.925781 C 526.898438 98.777344 529.222656 101.179688 530.984375 104.144531 C 532.753906 107.105469 533.640625 110.902344 533.640625 115.523438 C 533.640625 120.460938 532.652344 124.667969 530.679688 128.132812 C 528.703125 131.589844 526.046875 134.375 522.703125 136.472656 C 519.371094 138.578125 515.628906 140.121094 511.464844 141.109375 C 507.296875 142.09375 503.078125 142.589844 498.800781 142.589844 C 492.621094 142.589844 486.828125 141.535156 481.425781 139.4375 C 476.035156 137.335938 471.667969 134.097656 468.328125 129.730469 C 464.996094 125.359375 463.285156 119.757812 463.199219 112.917969 L 481.996094 112.917969 C 482.234375 117.949219 484.085938 121.636719 487.542969 123.992188 C 491.007812 126.339844 495.007812 127.507812 499.539062 127.507812 Z M 499.539062 127.507812 " fill-opacity="1" fill-rule="nonzero"/><path fill="#000000" d="M 607.792969 56.542969 L 627.558594 56.542969 L 627.558594 140.613281 L 607.792969 140.613281 L 607.792969 106.859375 L 580.109375 106.859375 L 580.109375 140.613281 L 561.578125 140.613281 L 561.578125 56.542969 L 580.109375 56.542969 L 580.109375 90.050781 L 607.792969 90.050781 Z M 607.792969 56.542969 " fill-opacity="1" fill-rule="nonzero"/><path fill="#000000" d="M 677.730469 110.5625 L 677.730469 140.613281 L 659.203125 140.613281 L 659.203125 56.542969 L 690.699219 56.542969 C 695.226562 56.542969 699.453125 57.679688 703.363281 59.941406 C 707.285156 62.210938 710.4375 65.367188 712.820312 69.402344 C 715.210938 73.445312 716.40625 78.140625 716.40625 83.496094 C 716.40625 88.199219 715.539062 92.363281 713.808594 95.996094 C 712.082031 99.617188 709.78125 102.582031 706.894531 104.882812 C 704.007812 107.191406 700.792969 108.796875 697.25 109.710938 L 721.363281 140.613281 L 697.878906 140.613281 L 677.847656 110.5625 Z M 687.625 71.132812 L 677.730469 71.132812 L 677.730469 95.976562 L 687.625 95.976562 C 690.328125 95.976562 692.855469 94.90625 695.199219 92.765625 C 697.554688 90.628906 698.730469 87.539062 698.730469 83.496094 C 698.730469 79.621094 697.554688 76.597656 695.199219 74.417969 C 692.855469 72.226562 690.328125 71.132812 687.625 71.132812 Z M 687.625 71.132812 " fill-opacity="1" fill-rule="nonzero"/><path fill="#000000" d="M 744.097656 56.542969 L 762.628906 56.542969 L 762.628906 140.613281 L 744.097656 140.613281 Z M 744.097656 56.542969 " fill-opacity="1" fill-rule="nonzero"/><path fill="#000000" d="M 899.058594 140.613281 L 878.664062 140.613281 L 868.773438 82.621094 L 852.351562 140.613281 L 834.179688 140.613281 L 817.738281 82.621094 L 807.863281 140.613281 L 787.472656 140.613281 L 803.78125 56.542969 L 825.769531 56.542969 L 843.332031 115.523438 L 860.742188 56.542969 L 882.746094 56.542969 Z M 899.058594 140.613281 " fill-opacity="1" fill-rule="nonzero"/><path fill="#000000" d="M 942.425781 110.5625 L 942.425781 140.613281 L 923.894531 140.613281 L 923.894531 56.542969 L 955.394531 56.542969 C 959.921875 56.542969 964.148438 57.679688 968.058594 59.941406 C 971.980469 62.210938 975.132812 65.367188 977.515625 69.402344 C 979.90625 73.445312 981.101562 78.140625 981.101562 83.496094 C 981.101562 89.183594 979.90625 94.046875 977.515625 98.085938 C 975.132812 102.125 971.980469 105.21875 968.058594 107.355469 C 964.148438 109.496094 959.921875 110.5625 955.394531 110.5625 Z M 952.320312 71.132812 L 942.425781 71.132812 L 942.425781 95.976562 L 952.320312 95.976562 C 955.023438 95.976562 957.550781 94.90625 959.894531 92.765625 C 962.25 90.628906 963.425781 87.539062 963.425781 83.496094 C 963.425781 79.621094 962.25 76.597656 959.894531 74.417969 C 957.550781 72.226562 955.023438 71.132812 952.320312 71.132812 Z M 952.320312 71.132812 " fill-opacity="1" fill-rule="nonzero"/><path fill="#000000" d="M 502.734375 243.230469 C 504.707031 243.230469 506.84375 242.921875 509.152344 242.300781 C 511.46875 241.683594 513.464844 240.65625 515.152344 239.222656 C 516.84375 237.777344 517.695312 235.816406 517.695312 233.335938 C 517.695312 231.03125 516.808594 229.183594 515.035156 227.789062 C 513.261719 226.382812 510.9375 225.234375 508.050781 224.332031 C 505.164062 223.417969 502.011719 222.574219 498.59375 221.785156 C 495.175781 221 491.730469 220.050781 488.265625 218.9375 C 484.808594 217.824219 481.640625 216.363281 478.753906 214.546875 C 475.867188 212.738281 473.535156 210.386719 471.765625 207.5 C 469.992188 204.613281 469.109375 200.949219 469.109375 196.503906 C 469.109375 192.132812 470.011719 188.363281 471.824219 185.183594 C 473.644531 182.003906 476.058594 179.371094 479.058594 177.28125 C 482.066406 175.179688 485.445312 173.613281 489.195312 172.589844 C 492.941406 171.554688 496.714844 171.03125 500.511719 171.03125 C 506.269531 171.03125 511.664062 171.9375 516.6875 173.746094 C 521.710938 175.5625 525.8125 178.429688 528.992188 182.351562 C 532.167969 186.265625 533.839844 191.433594 534.003906 197.851562 L 516.082031 197.851562 C 515.585938 193.484375 514.058594 190.457031 511.503906 188.773438 C 508.945312 187.078125 505.363281 186.226562 500.757812 186.226562 C 499.023438 186.226562 497.191406 186.523438 495.253906 187.101562 C 493.316406 187.683594 491.664062 188.617188 490.296875 189.894531 C 488.941406 191.160156 488.265625 192.871094 488.265625 195.023438 C 488.265625 197.164062 489.148438 198.855469 490.925781 200.09375 C 492.695312 201.324219 495.023438 202.347656 497.910156 203.171875 C 500.796875 203.996094 503.96875 204.78125 507.421875 205.527344 C 510.886719 206.261719 514.335938 207.167969 517.753906 208.242188 C 521.167969 209.320312 524.320312 210.789062 527.207031 212.648438 C 530.09375 214.5 532.414062 216.902344 534.175781 219.867188 C 535.945312 222.828125 536.832031 226.625 536.832031 231.246094 C 536.832031 236.183594 535.847656 240.390625 533.871094 243.855469 C 531.898438 247.3125 529.238281 250.097656 525.898438 252.195312 C 522.566406 254.300781 518.820312 255.84375 514.65625 256.832031 C 510.488281 257.820312 506.269531 258.3125 501.992188 258.3125 C 495.8125 258.3125 490.023438 257.257812 484.621094 255.160156 C 479.226562 253.058594 474.863281 249.820312 471.519531 245.453125 C 468.1875 241.085938 466.480469 235.480469 466.394531 228.640625 L 485.191406 228.640625 C 485.425781 233.671875 487.277344 237.359375 490.734375 239.714844 C 494.199219 242.0625 498.199219 243.230469 502.734375 243.230469 Z M 502.734375 243.230469 " fill-opacity="1" fill-rule="nonzero"/><path fill="#000000" d="M 600.484375 189.078125 L 600.484375 256.335938 L 581.9375 256.335938 L 581.9375 189.078125 L 557.972656 189.078125 L 557.972656 172.265625 L 624.445312 172.265625 L 624.445312 189.078125 Z M 600.484375 189.078125 " fill-opacity="1" fill-rule="nonzero"/><path fill="#000000" d="M 698.359375 172.265625 L 716.890625 172.265625 L 716.890625 223.570312 C 716.890625 234.777344 713.835938 243.25 707.738281 248.984375 C 701.648438 254.710938 693.121094 257.570312 682.164062 257.570312 C 671.199219 257.570312 662.667969 254.710938 656.566406 248.984375 C 650.476562 243.25 647.4375 234.777344 647.4375 223.570312 L 647.4375 172.265625 L 665.964844 172.265625 L 665.964844 220.855469 C 665.964844 226.628906 667.097656 231.105469 669.367188 234.285156 C 671.628906 237.453125 675.898438 239.03125 682.164062 239.03125 C 688.503906 239.03125 692.785156 237.453125 695.015625 234.285156 C 697.242188 231.105469 698.359375 226.628906 698.359375 220.855469 Z M 698.359375 172.265625 " fill-opacity="1" fill-rule="nonzero"/><path fill="#000000" d="M 764.957031 239.28125 L 770.519531 239.28125 C 775.289062 239.28125 779.464844 238.167969 783.050781 235.9375 C 786.644531 233.710938 789.449219 230.703125 791.460938 226.914062 C 793.484375 223.113281 794.5 218.914062 794.5 214.300781 C 794.5 209.605469 793.484375 205.382812 791.460938 201.632812 C 789.449219 197.886719 786.644531 194.921875 783.050781 192.742188 C 779.464844 190.554688 775.289062 189.457031 770.519531 189.457031 L 764.957031 189.457031 Z M 746.671875 172.265625 L 771.621094 172.265625 C 777.554688 172.265625 783.054688 173.339844 788.121094 175.476562 C 793.195312 177.617188 797.621094 180.585938 801.410156 184.382812 C 805.195312 188.175781 808.136719 192.625 810.238281 197.738281 C 812.335938 202.84375 813.390625 208.367188 813.390625 214.300781 C 813.390625 220.242188 812.335938 225.769531 810.238281 230.882812 C 808.136719 235.988281 805.210938 240.4375 801.46875 244.238281 C 797.71875 248.027344 793.289062 250.988281 788.175781 253.125 C 783.074219 255.269531 777.554688 256.335938 771.621094 256.335938 L 746.671875 256.335938 Z M 746.671875 172.265625 " fill-opacity="1" fill-rule="nonzero"/><path fill="#000000" d="M 841.945312 172.265625 L 860.476562 172.265625 L 860.476562 256.335938 L 841.945312 256.335938 Z M 841.945312 172.265625 " fill-opacity="1" fill-rule="nonzero"/><path fill="#000000" d="M 956.996094 214.167969 C 956.996094 209.800781 955.839844 205.746094 953.523438 201.992188 C 951.214844 198.246094 948.191406 195.222656 944.449219 192.914062 C 940.699219 190.609375 936.644531 189.457031 932.277344 189.457031 C 927.984375 189.457031 923.945312 190.609375 920.164062 192.914062 C 916.375 195.222656 913.328125 198.246094 911.011719 201.992188 C 908.707031 205.746094 907.554688 209.800781 907.554688 214.167969 C 907.554688 218.460938 908.707031 222.507812 911.011719 226.304688 C 913.328125 230.09375 916.375 233.164062 920.164062 235.519531 C 923.945312 237.863281 927.984375 239.03125 932.277344 239.03125 C 936.644531 239.03125 940.699219 237.863281 944.449219 235.519531 C 948.191406 233.164062 951.214844 230.09375 953.523438 226.304688 C 955.839844 222.507812 956.996094 218.460938 956.996094 214.167969 Z M 975.527344 214.300781 C 975.527344 220.074219 974.375 225.578125 972.074219 230.808594 C 969.765625 236.039062 966.613281 240.65625 962.617188 244.65625 C 958.617188 248.660156 954.019531 251.8125 948.832031 254.113281 C 943.640625 256.417969 938.125 257.570312 932.277344 257.570312 C 926.503906 257.570312 921.003906 256.417969 915.777344 254.113281 C 910.546875 251.8125 905.933594 248.660156 901.9375 244.65625 C 897.933594 240.65625 894.785156 236.039062 892.480469 230.808594 C 890.175781 225.578125 889.027344 220.074219 889.027344 214.300781 C 889.027344 208.449219 890.175781 202.933594 892.480469 197.738281 C 894.785156 192.546875 897.933594 187.949219 901.9375 183.949219 C 905.933594 179.949219 910.546875 176.796875 915.777344 174.488281 C 921.003906 172.183594 926.503906 171.03125 932.277344 171.03125 C 938.125 171.03125 943.640625 172.183594 948.832031 174.488281 C 954.019531 176.796875 958.617188 179.949219 962.617188 183.949219 C 966.613281 187.949219 969.765625 192.546875 972.074219 197.738281 C 974.375 202.933594 975.527344 208.449219 975.527344 214.300781 Z M 975.527344 214.300781 " fill-opacity="1" fill-rule="nonzero"/><path fill="#000000" d="M 502.9375 127.449219 C 504.914062 127.449219 507.050781 127.140625 509.355469 126.515625 C 511.671875 125.898438 513.671875 124.875 515.355469 123.441406 C 517.050781 121.996094 517.902344 120.035156 517.902344 117.550781 C 517.902344 115.25 517.011719 113.402344 515.242188 112.003906 C 513.46875 110.601562 511.140625 109.449219 508.253906 108.546875 C 505.371094 107.636719 502.21875 106.792969 498.800781 106.003906 C 495.382812 105.21875 491.9375 104.269531 488.472656 103.152344 C 485.015625 102.042969 481.84375 100.578125 478.960938 98.765625 C 476.074219 96.957031 473.742188 94.605469 471.972656 91.71875 C 470.195312 88.832031 469.3125 85.164062 469.3125 80.722656 C 469.3125 76.351562 470.214844 72.582031 472.027344 69.398438 C 473.851562 66.222656 476.261719 63.585938 479.261719 61.5 C 482.273438 59.398438 485.652344 57.832031 489.402344 56.804688 C 493.148438 55.769531 496.921875 55.25 500.71875 55.25 C 506.476562 55.25 511.867188 56.15625 516.894531 57.964844 C 521.917969 59.777344 526.019531 62.648438 529.199219 66.570312 C 532.375 70.484375 534.042969 75.648438 534.210938 82.070312 L 516.285156 82.070312 C 515.792969 77.699219 514.265625 74.675781 511.710938 72.988281 C 509.152344 71.292969 505.570312 70.445312 500.964844 70.445312 C 499.226562 70.445312 497.394531 70.738281 495.457031 71.320312 C 493.523438 71.902344 491.871094 72.832031 490.503906 74.109375 C 489.144531 75.378906 488.472656 77.089844 488.472656 79.238281 C 488.472656 81.382812 489.355469 83.070312 491.128906 84.3125 C 492.898438 85.539062 495.230469 86.566406 498.117188 87.386719 C 501.003906 88.214844 504.171875 88.996094 507.628906 89.742188 C 511.09375 90.480469 514.539062 91.386719 517.957031 92.460938 C 521.375 93.539062 524.527344 95.003906 527.414062 96.867188 C 530.300781 98.71875 532.621094 101.121094 534.382812 104.085938 C 536.152344 107.046875 537.039062 110.84375 537.039062 115.460938 C 537.039062 120.402344 536.050781 124.609375 534.078125 128.074219 C 532.101562 131.53125 529.445312 134.316406 526.101562 136.414062 C 522.769531 138.515625 519.027344 140.0625 514.863281 141.046875 C 510.695312 142.035156 506.476562 142.53125 502.199219 142.53125 C 496.019531 142.53125 490.226562 141.476562 484.828125 139.375 C 479.433594 137.277344 475.066406 134.039062 471.726562 129.671875 C 468.394531 125.300781 466.683594 119.699219 466.597656 112.859375 L 485.394531 112.859375 C 485.632812 117.890625 487.484375 121.578125 490.941406 123.933594 C 494.40625 126.28125 498.40625 127.449219 502.9375 127.449219 Z M 502.9375 127.449219 " fill-opacity="1" fill-rule="nonzero"/><path fill="#000000" d="M 611.191406 56.484375 L 630.957031 56.484375 L 630.957031 140.554688 L 611.191406 140.554688 L 611.191406 106.800781 L 583.507812 106.800781 L 583.507812 140.554688 L 564.976562 140.554688 L 564.976562 56.484375 L 583.507812 56.484375 L 583.507812 89.992188 L 611.191406 89.992188 Z M 611.191406 56.484375 " fill-opacity="1" fill-rule="nonzero"/><path fill="#000000" d="M 681.132812 110.503906 L 681.132812 140.554688 L 662.601562 140.554688 L 662.601562 56.484375 L 694.097656 56.484375 C 698.628906 56.484375 702.851562 57.617188 706.761719 59.882812 C 710.683594 62.152344 713.835938 65.308594 716.21875 69.34375 C 718.609375 73.382812 719.808594 78.082031 719.808594 83.4375 C 719.808594 88.136719 718.9375 92.304688 717.207031 95.9375 C 715.484375 99.558594 713.179688 102.523438 710.292969 104.824219 C 707.410156 107.132812 704.191406 108.738281 700.648438 109.648438 L 724.761719 140.554688 L 701.277344 140.554688 L 681.246094 110.503906 Z M 691.023438 71.070312 L 681.132812 71.070312 L 681.132812 95.917969 L 691.023438 95.917969 C 693.730469 95.917969 696.253906 94.847656 698.597656 92.707031 C 700.953125 90.570312 702.128906 87.476562 702.128906 83.4375 C 702.128906 79.5625 700.953125 76.539062 698.597656 74.359375 C 696.253906 72.167969 693.730469 71.070312 691.023438 71.070312 Z M 691.023438 71.070312 " fill-opacity="1" fill-rule="nonzero"/><path fill="#000000" d="M 747.496094 56.484375 L 766.027344 56.484375 L 766.027344 140.554688 L 747.496094 140.554688 Z M 747.496094 56.484375 " fill-opacity="1" fill-rule="nonzero"/><path fill="#000000" d="M 902.457031 140.554688 L 882.066406 140.554688 L 872.171875 82.5625 L 855.75 140.554688 L 837.578125 140.554688 L 821.136719 82.5625 L 811.261719 140.554688 L 790.871094 140.554688 L 807.179688 56.484375 L 829.167969 56.484375 L 846.730469 115.460938 L 864.140625 56.484375 L 886.148438 56.484375 Z M 902.457031 140.554688 " fill-opacity="1" fill-rule="nonzero"/><path fill="#000000" d="M 945.824219 110.503906 L 945.824219 140.554688 L 927.296875 140.554688 L 927.296875 56.484375 L 958.792969 56.484375 C 963.320312 56.484375 967.546875 57.617188 971.457031 59.882812 C 975.378906 62.152344 978.53125 65.308594 980.914062 69.34375 C 983.304688 73.382812 984.5 78.082031 984.5 83.4375 C 984.5 89.125 983.304688 93.988281 980.914062 98.023438 C 978.53125 102.066406 975.378906 105.15625 971.457031 107.292969 C 967.546875 109.4375 963.320312 110.503906 958.792969 110.503906 Z M 955.71875 71.070312 L 945.824219 71.070312 L 945.824219 95.917969 L 955.71875 95.917969 C 958.421875 95.917969 960.949219 94.847656 963.292969 92.707031 C 965.648438 90.570312 966.824219 87.476562 966.824219 83.4375 C 966.824219 79.5625 965.648438 76.539062 963.292969 74.359375 C 960.949219 72.167969 958.421875 71.070312 955.71875 71.070312 Z M 955.71875 71.070312 " fill-opacity="1" fill-rule="nonzero"/><path fill="#000000" d="M 506.132812 243.171875 C 508.105469 243.171875 510.242188 242.863281 512.550781 242.242188 C 514.867188 241.621094 516.863281 240.597656 518.550781 239.164062 C 520.246094 237.71875 521.09375 235.757812 521.09375 233.273438 C 521.09375 230.972656 520.207031 229.125 518.4375 227.726562 C 516.660156 226.324219 514.335938 225.171875 511.449219 224.269531 C 508.5625 223.359375 505.410156 222.515625 501.992188 221.726562 C 498.574219 220.941406 495.128906 219.992188 491.664062 218.875 C 488.210938 217.765625 485.039062 216.304688 482.152344 214.488281 C 479.265625 212.679688 476.9375 210.328125 475.164062 207.441406 C 473.390625 204.554688 472.507812 200.890625 472.507812 196.445312 C 472.507812 192.074219 473.410156 188.304688 475.222656 185.125 C 477.046875 181.945312 479.457031 179.3125 482.457031 177.222656 C 485.464844 175.121094 488.84375 173.554688 492.59375 172.53125 C 496.339844 171.496094 500.113281 170.972656 503.910156 170.972656 C 509.667969 170.972656 515.0625 171.878906 520.085938 173.6875 C 525.109375 175.503906 529.210938 178.371094 532.390625 182.292969 C 535.566406 186.207031 537.238281 191.371094 537.402344 197.792969 L 519.480469 197.792969 C 518.988281 193.421875 517.457031 190.398438 514.902344 188.714844 C 512.347656 187.019531 508.761719 186.167969 504.15625 186.167969 C 502.421875 186.167969 500.589844 186.460938 498.652344 187.042969 C 496.714844 187.625 495.0625 188.554688 493.695312 189.832031 C 492.339844 191.101562 491.664062 192.8125 491.664062 194.960938 C 491.664062 197.105469 492.546875 198.792969 494.324219 200.035156 C 496.09375 201.265625 498.425781 202.289062 501.308594 203.109375 C 504.195312 203.9375 507.367188 204.722656 510.820312 205.464844 C 514.289062 206.203125 517.734375 207.109375 521.152344 208.183594 C 524.570312 209.261719 527.71875 210.726562 530.605469 212.589844 C 533.492188 214.441406 535.8125 216.84375 537.574219 219.808594 C 539.34375 222.769531 540.230469 226.566406 540.230469 231.183594 C 540.230469 236.125 539.246094 240.332031 537.269531 243.796875 C 535.296875 247.253906 532.636719 250.039062 529.296875 252.136719 C 525.964844 254.242188 522.21875 255.785156 518.054688 256.769531 C 513.886719 257.757812 509.667969 258.253906 505.390625 258.253906 C 499.210938 258.253906 493.421875 257.199219 488.019531 255.101562 C 482.628906 253 478.261719 249.761719 474.917969 245.394531 C 471.585938 241.023438 469.878906 235.421875 469.792969 228.582031 L 488.589844 228.582031 C 488.828125 233.613281 490.675781 237.300781 494.132812 239.65625 C 497.597656 242.003906 501.597656 243.171875 506.132812 243.171875 Z M 506.132812 243.171875 " fill-opacity="1" fill-rule="nonzero"/><path fill="#000000" d="M 603.882812 189.015625 L 603.882812 256.277344 L 585.335938 256.277344 L 585.335938 189.015625 L 561.375 189.015625 L 561.375 172.207031 L 627.84375 172.207031 L 627.84375 189.015625 Z M 603.882812 189.015625 " fill-opacity="1" fill-rule="nonzero"/><path fill="#000000" d="M 701.757812 172.207031 L 720.289062 172.207031 L 720.289062 223.511719 C 720.289062 234.71875 717.234375 243.191406 711.136719 248.925781 C 705.046875 254.652344 696.519531 257.511719 685.5625 257.511719 C 674.597656 257.511719 666.066406 254.652344 659.96875 248.925781 C 653.878906 243.191406 650.835938 234.71875 650.835938 223.511719 L 650.835938 172.207031 L 669.367188 172.207031 L 669.367188 220.796875 C 669.367188 226.570312 670.496094 231.046875 672.765625 234.222656 C 675.027344 237.390625 679.296875 238.972656 685.5625 238.972656 C 691.902344 238.972656 696.183594 237.390625 698.414062 234.222656 C 700.640625 231.046875 701.757812 226.570312 701.757812 220.796875 Z M 701.757812 172.207031 " fill-opacity="1" fill-rule="nonzero"/><path fill="#000000" d="M 768.355469 239.21875 L 773.917969 239.21875 C 778.6875 239.21875 782.867188 238.109375 786.449219 235.878906 C 790.042969 233.648438 792.847656 230.644531 794.859375 226.855469 C 796.882812 223.054688 797.898438 218.851562 797.898438 214.242188 C 797.898438 209.546875 796.882812 205.324219 794.859375 201.574219 C 792.847656 197.824219 790.042969 194.863281 786.449219 192.683594 C 782.867188 190.492188 778.6875 189.398438 773.917969 189.398438 L 768.355469 189.398438 Z M 750.070312 172.207031 L 775.019531 172.207031 C 780.953125 172.207031 786.453125 173.28125 791.519531 175.417969 C 796.59375 177.558594 801.019531 180.527344 804.808594 184.324219 C 808.59375 188.113281 811.535156 192.5625 813.636719 197.679688 C 815.734375 202.785156 816.789062 208.304688 816.789062 214.242188 C 816.789062 220.183594 815.734375 225.710938 813.636719 230.824219 C 811.535156 235.929688 808.609375 240.378906 804.867188 244.179688 C 801.117188 247.96875 796.6875 250.929688 791.574219 253.066406 C 786.472656 255.210938 780.953125 256.277344 775.019531 256.277344 L 750.070312 256.277344 Z M 750.070312 172.207031 " fill-opacity="1" fill-rule="nonzero"/><path fill="#000000" d="M 845.34375 172.207031 L 863.875 172.207031 L 863.875 256.277344 L 845.34375 256.277344 Z M 845.34375 172.207031 " fill-opacity="1" fill-rule="nonzero"/><path fill="#000000" d="M 960.394531 214.109375 C 960.394531 209.742188 959.238281 205.683594 956.921875 201.933594 C 954.613281 198.1875 951.589844 195.160156 947.847656 192.855469 C 944.097656 190.550781 940.042969 189.398438 935.675781 189.398438 C 931.386719 189.398438 927.34375 190.550781 923.5625 192.855469 C 919.773438 195.160156 916.726562 198.1875 914.410156 201.933594 C 912.105469 205.683594 910.957031 209.742188 910.957031 214.109375 C 910.957031 218.402344 912.105469 222.449219 914.410156 226.246094 C 916.726562 230.035156 919.773438 233.105469 923.5625 235.460938 C 927.34375 237.804688 931.386719 238.972656 935.675781 238.972656 C 940.042969 238.972656 944.097656 237.804688 947.847656 235.460938 C 951.589844 233.105469 954.613281 230.035156 956.921875 226.246094 C 959.238281 222.449219 960.394531 218.402344 960.394531 214.109375 Z M 978.925781 214.242188 C 978.925781 220.015625 977.773438 225.519531 975.472656 230.75 C 973.164062 235.980469 970.011719 240.597656 966.015625 244.597656 C 962.015625 248.597656 957.421875 251.753906 952.230469 254.054688 C 947.039062 256.359375 941.523438 257.511719 935.675781 257.511719 C 929.902344 257.511719 924.402344 256.359375 919.175781 254.054688 C 913.945312 251.753906 909.332031 248.597656 905.335938 244.597656 C 901.332031 240.597656 898.183594 235.980469 895.878906 230.75 C 893.574219 225.519531 892.425781 220.015625 892.425781 214.242188 C 892.425781 208.390625 893.574219 202.875 895.878906 197.679688 C 898.183594 192.488281 901.332031 187.890625 905.335938 183.886719 C 909.332031 179.890625 913.945312 176.738281 919.175781 174.429688 C 924.402344 172.125 929.902344 170.972656 935.675781 170.972656 C 941.523438 170.972656 947.039062 172.125 952.230469 174.429688 C 957.421875 176.738281 962.015625 179.890625 966.015625 183.886719 C 970.011719 187.890625 973.164062 192.488281 975.472656 197.679688 C 977.773438 202.875 978.925781 208.390625 978.925781 214.242188 Z M 978.925781 214.242188 " fill-opacity="1" fill-rule="nonzero"/></svg>